<svg id="Layer_1" data-name="Layer 1" xmlns="http://www.w3.org/2000/svg" viewBox="0 0 400 400"><defs><style>.cls-1{fill:#fff;}</style></defs><title>crushed-ice</title><path class="cls-1" d="M341.37,377.52c-.15-4.84-5-3.31-8.12-4s-6.6,2.81-6.73,5.79c-.14,3.24,4.74,9.11,7.82,9.42C337.11,389,341.1,383.13,341.37,377.52Zm-7.7-14.11c2.54-1,7.49,1.4,7.5-4.41,0-4.56-4.53-10.66-7.49-10.53-3.2.13-7.61,5.66-7.57,9.49,0,2.18,4.49,5.56,7.56,5.45Z"/><path class="cls-1" d="M62.34,275.77c-4,.3-7,0-7.24,3.78-.17,3.08,3.77,7.82,6.12,7.38,3.11-.58,5.56-2.42,5.72-5.82C67.12,277.18,65,275.3,62.34,275.77ZM61.47,267c3.79.59,5.43-1.9,5.18-5.49-.22-3.17-2.63-5.29-5.57-6.14-2-.56-5.8,4.76-5.71,7.82C55.49,266.86,58.25,267,61.47,267Z"/><path class="cls-1" d="M271.38,289.9c3.36-.47,6.71-1,10.07-1.39a5.33,5.33,0,0,1,5.2,2.34c4.72,7,10.84,13.22,10.74,22.81-.06,5.58,4.68,7.09,11.25,4.39-1.62,3.83-.64,6.23,3.55,7.52,3,.91,4.83,3.2,3.83,6.5s-3.84,3.45-6.55,2.7c-3-.83-4.43.15-5,3-.56.36-1,.79-.76,1.55A3,3,0,0,1,301,341.2c-3.85.37-3.28,1.8-.89,3.69,1.45,1.14,3,2.28,1.74,4.47-1.78-1.7-3.42-3.53-6.31-3.17-1.33.16-3.08-.28-2.15-2.15,1.32-2.68-.2-3.26-2.12-4.32-1.51-.83-2.65-2.41-3.83-3.77a2.25,2.25,0,0,1-.42-2.74c.67-1,1.76-.67,2.69-.34,2.32.81,4.61,1.67,6.91,2.52-.13,2.19,1.1,2.9,3.06,2.79.78,0,2-.08,1.81-1-.16-.75-1.34-1.28-2.07-1.9,3.93-3.83,3.89-5.45.52-9.61-2.12-2.6-4.78-4.51-7.21-6.73-2.64-2.41-4.42-1-6.38.86-2.43,2.29-.7,3.2,1.17,4.37a4.54,4.54,0,0,1,1.6,2.4,2.37,2.37,0,0,1-1.19,3.13,1.75,1.75,0,0,1-.32.12c-3,.83-6.06-.32-9-.83-1.26-.22-1-2-.41-3,.83-1.44,1.56-3.1,2.79-4.1,4.05-3.3,6.52-7,3.13-12.93,3.5,1.32,6.53,4.09,7.28-1.08.72-5-4.13-11.06-9.12-11.55-1.34-.13-2.81,0-3.47-1.47-.92-2-2.19-3-4.29-1.83-1.82,1-3.18,2.57-2.62,4.89s.11,4.28-2.08,5.58c-.78-1.6.41-3.65-1.51-5.47-1.53,2.54-1.55,6.22-4.85,7-3.48.87-3,2.85-1.93,5.24-2.15-.46-5,1-6.37-1.42-1-1.84,2.28-2,2.31-3.82-1.26-1.21-2.85-.69-4.25-1,1.7-2.31,1.91-5.51-.2-6.64-2.68-1.44-3.39,2-4.41,3.87h-1.17c-.94-4.63,2.51-12,7.32-14.49,2.51-1.31,5.26-3.44,8.36-1.92,3.48,1.71,1.89,4.8,1.5,7.49a5.57,5.57,0,0,0,0,1c0,1,.22,2.1,1.34,2.41s1.9-.51,2.29-1.46A13,13,0,0,1,271.38,289.9Z"/><path class="cls-1" d="M310.53,345.71c1.72-.8,3.39-.66,4.48.89,2.57,3.7,5.05,7.48,5.76,12.06.58,3.78-.9,6.15-4.9,6.58l-6.94.74c-1.73.18-3.39.1-4.32-1.7-1.9-3.74-3.79-2.79-5.69,0a3,3,0,0,0-1.87-2.48.84.84,0,0,0-.19-.68,1,1,0,0,0,.09-.62c2.22-.09,4.27-.43,4.75-3.15h-.15c.88-.28,1.13-1,1.35-1.81,2.23-2.53,5.66-4.24,5.62-8.3v.06C309.54,347.25,310.06,346.51,310.53,345.71Zm2.12,7.4c-2.91.08-5,1.26-5.08,4.27-.08,3.49,2,5.58,5.4,5.78,3,.17,4.53-1.72,4.62-4.6.1-3.36-1.7-5.14-4.94-5.45Z"/><path class="cls-1" d="M341.37,377.52c-.27,5.61-4.26,11.47-7,11.2-3.08-.31-8-6.18-7.82-9.42.13-3,3.75-6.47,6.73-5.79S341.22,372.68,341.37,377.52Z"/><path class="cls-1" d="M297.05,361.78a3,3,0,0,1,1.87,2.48,23.62,23.62,0,0,0,.08,9.94c-4.23,3.23-9.21,2.82-14,2.69-2.69-.08-2.74-3.41-4.57-4.73a2.1,2.1,0,0,0-1.64-2l-.06-4.06,3.4-3.06c2.35,1.87,4.33,3.88,4.78,7.15a3.37,3.37,0,0,0,3.63,2.75c1.87,0,3.74-1.21,3.5-2.77C293.49,366.66,296.09,364.58,297.05,361.78Z"/><path class="cls-1" d="M333.67,363.41c-3.07.11-7.54-3.27-7.56-5.45,0-3.83,4.37-9.36,7.57-9.49,3-.13,7.5,6,7.49,10.53C341.16,364.81,336.21,362.39,333.67,363.41Zm1.62-2.39c1.78-.07,2.93-.89,3-2.66a3.27,3.27,0,0,0-2.82-3.66l-.36,0a2.6,2.6,0,0,0-3,2.19,3.55,3.55,0,0,0,0,.46,3.44,3.44,0,0,0,3.14,3.7Z"/><path class="cls-1" d="M304.47,337.76c.57-2.84,2-3.82,5-3,2.71.75,5.55.56,6.55-2.7s-.87-5.59-3.83-6.5c-4.19-1.29-5.17-3.69-3.55-7.52,2.61-1.49,4.41-.4,5.71,1.9,2.33,4.17,4.79,8.32,4.88,13.32C315.66,339.2,309.59,336.9,304.47,337.76Z"/><path class="cls-1" d="M301.89,349.36c1.24-2.19-.29-3.33-1.74-4.47-2.39-1.89-3-3.32.89-3.69a3,3,0,0,0,2.67-1.89c3.69.94,3.42,4.57,4.79,7.08a2.12,2.12,0,0,1,0,.87v-.06c-2.85.61-3.89,3.67-6.41,4.72Z"/><path class="cls-1" d="M308.47,347.26a2.13,2.13,0,0,0,0-.87l2-.68A2.27,2.27,0,0,1,308.47,347.26Z"/><path class="cls-1" d="M221.06,231.12a4.42,4.42,0,0,1,1,4c-1.31,4.46,1.09,2.82,3.08,1.87.37,2,1.69,3,3.61,3.56,1.75.51,3,1.84,2.37,3.75-2.17,6.69,1.27,11.42,5.33,16-.81,2.3-1.63,4.6-2.44,6.91-3.79.73-9.23-.09-6.51,6.84l-1.68,1-.6-1.58a13.75,13.75,0,0,0-5.88-8.4,4.17,4.17,0,0,0,.43,2.55c.47,1.09,2.2,2.38.21,3.26-1.66.73-3.71.75-4.44-1.7-.28-1-.4-2-.6-2.93-5.1-.89-7,.55-6.42,4.88-2.81,1.55-3,4.22-3.05,7l-7-.15,1-3.76,1-.91c1.15-.33,1.86-.84.93-2.08a6.37,6.37,0,0,0-.82-4.07l-.3-2.78.42-.34c.82-.05,2.32,0,2.37-.18,1.4-6,4.32-2.14,7.18-1.49s8.92.49,8.9-.15c-.15-5,3.76-6.92,6.3-9.86.18-.2.09-.64.12-1l2.06-2c1.94-1.15,2-2.23-.13-3.21-2.75-1.49-5.05-1.52-6.29,1.92a1.53,1.53,0,0,0-1.09,1.87,1.69,1.69,0,0,0,.23.49c.48,1,2.44,1.93.85,3.26-1.14,1-2.48,0-3.66-.57l-.82-1.13-.51.52,1.13.81c-1.88,3.54-4.57,1-6.37.34-2.88-1-.5-3.7-.68-5.64l-.84-.84h.08c-1.12-2.63-2.17-5.53,2.16-5.8s5.65-2.79,5.72-6.55a7.44,7.44,0,0,1,1.47-4.66Zm7.9,26.21c-2.81.35-5,1.76-5.16,4.82-.15,2.55,1.64,4,4.08,3.93,3,0,5.05-1.74,5.28-4.74.2-2.57-1.68-3.71-4.16-4Z"/><path class="cls-1" d="M271.38,289.9a13,13,0,0,0-3.15,4.4c-.39,1-1.14,1.78-2.29,1.46s-1.29-1.39-1.34-2.41a5.57,5.57,0,0,1,0-1c.39-2.69,2-5.78-1.5-7.49-3.1-1.52-5.85.61-8.36,1.92-4.81,2.51-8.26,9.86-7.32,14.49-3,2.67-4,6.51-5.68,10-1.22-.27-3.54-.71-2-2.1,2.69-2.48,2-6,3.86-8.77a10.69,10.69,0,0,0,.37-11.78c-1.14-1.85-1.19-3,1.36-3.34,2.19-.31,3.86-1.79,5.69-2.92,2.38-1.45,1.68-2.81,0-4.2v-1.81c2.07-3.31,4.26-6.57,4.64-10.62l2-.31c5.09-2.8,6-5.84,3-10.31a4.91,4.91,0,0,1-.1-.77l1.18-1.23c4.78,1.44,2.44,4.89,2.2,7.76-.09.58-.48,1.42-.23,1.7.62.7,1-.05,1.34-.56l4.2-1.11c-.77,6.27,4.1,5.63,7.83,6.38,1.79,1.33,2.7,3.28,3.64,5.2.75,3.12-.55,5-3.48,6.09-1.39.5-2.72,1.15-4.1,1.68C266.26,282.92,266,284.12,271.38,289.9Zm5-16.86c-.53-2.41-1.88-4.35-4.48-4.38s-4.4,1.49-4.22,4.34,1.85,4.16,4.54,4.09c2.46-.06,3.87-1.47,4.15-4Zm-15.09-1.66c0-.1.45-1.33-.54-1.86a2.09,2.09,0,0,0-2.78,1l-.09.23a56.19,56.19,0,0,0-3.28,8.78c-.54,2.15.65,2.33,2.62,1.52,4.26-1.75,3.2-5.63,4.06-9.67Z"/><path class="cls-1" d="M255.66,265.7c-.38,4.05-2.57,7.31-4.64,10.62-1.43-1.3-2.49-5.2-4.32-3.4-3.39,3.31-6.75.9-10,1.49-.15-.16-.3-.31-.46-.46.11-1.76.23-3.51.34-5.27a20.17,20.17,0,0,0,3.94-2.11c1.09-.9,3.61,1,3.44-1.52-.12-1.87-1.9-3.09-3.63-3.8a24.26,24.26,0,0,0-3.85-.93c-4.06-4.56-7.5-9.29-5.33-16,.62-1.91-.62-3.24-2.37-3.75-1.92-.56-3.24-1.53-3.61-3.56.43-2.58.72-5.2,1.32-7.74.68-2.86,1.43-5.83,5.19-6.17-.2,3-.33,5.75,4,3.24,2.38-1.37,4.5-.79,5.77,1.87-1.95,0-4-.3-5.65,1.14s-2.79,3.27-2.09,5.63c.58,1.94,2.16,2.4,3.92,2.13a4.34,4.34,0,0,0,3.85-4.43c.1-1.48,0-3,0-4.44l3.67,3.81c.58,4.3.11,7.95-5.28,8.56-2.34-.62-4,1.89-6.26,1.44h-.51l.24.3c.65,2.4,1.58,4.54,4.69,3.59,3.72-1.15,7.51-.53,11.26-.71l1.23.26c.18,1.85-.37,4,2.37,4.61s5.6,1.39,8.4,2.1l.51.9-1.19,1.23c-2.53-.7-4.8-2.26-7.59-2.2s-5.57.4-7.12-3.57c-1-2.65-4.31-1.45-6.48,0-1.7,1.16-2.83,3.1-1.07,4.55,2.46,2,3.14,5,5,7.28,2.62,3.22,4.64,8,10.39,5C254.2,265.2,255,265.59,255.66,265.7Z"/><path class="cls-1" d="M159.5,227.07c2.09-4.48,6.41-6.18,10.55-7.5,5.37-1.71,7.28.09,8.19,7.07.36,2.72.54,5,4.13,4.63a7.14,7.14,0,0,1-2.77,6.58c-2.27,1.8-2.87,4.25-1,6.59s4.31,2.32,6.54.28c2.69-2.46,4.2-1.25,5.85,1.36,2,3.15,3.42,7,7.59,8.11l.8.14c.3,1.79,2.14,4.94-.66,4.84s-4.23,2-6.48,2.4c-1.09-1.2-2.61-2.12-2.75-4a8,8,0,0,0,1.51-2.46c.34-1.82-.13-3.9-1.76-4.66-2.17-1-4.83-.1-6.45,1.18-1.34,1.05,1.41,2.07,1.74,3.43-2.84.59-6.1-.89-8.55,1.25-3,2.66-3.1.37-3.46-1.76,1.08-.93,2.95-1.43,2.51-3.26a3.18,3.18,0,0,0-2.22-1.7c-2-.32-2.16,1.68-2.95,2.82a8.32,8.32,0,0,0-.71,1.85l-1.85.13-3.72-.22.81-4h0c2.87-1.17,4.58-5.79,4.48-6.28-1.2-6.07,3.07-9.44,5.79-13.57a3.5,3.5,0,0,0-.4-4.58c-1.24-1.38-3.25-2.17-4.47-1.13C166.68,227.2,162.84,225.94,159.5,227.07Zm34.08,29.06-.36-.16.14.38h.44Z"/><path class="cls-1" d="M117.38,298.64c2.17-1.31,5.61,1.16,7-2.38,1-2.36,1.46-4.45-1.26-6.3-1.86-1.27-2.72-3.54-3.25-5.78,3,.19,5.47,2.75,8.7,2a5,5,0,0,0,.16.93c-.64.76-1.43,1.68-.58,2.55s1.81.27,2.6-.4l.62.86c-1.26,1.79-1.11,3.29.91,4.4.14.52.29,1,.43,1.56l-.6,4a2.6,2.6,0,0,0,0,2.44c2.6,2.11,1.31,6.6,4.94,8.08a3.44,3.44,0,0,0,3.14,1.94c.6,1.68.92,4.63,1.83,4.82,6,1.26,3.42,5.53,3.55,8.86-5.21,2.34-6.55-2.61-9.29-4.93.12-.7.23-1.4.34-2.11.61-.67,1-1.75.13-2.06-1.49-.51-1.18,1-1.45,1.85l-3.94.33c-1.91-2-4.53-3.52-4.17-6.88.24-3.77-1.87-6.29-4.54-8.5l-1.7-1.17Z"/><path class="cls-1" d="M159.5,227.07c3.34-1.13,7.18.16,10.32-2.51,1.22-1,3.23-.25,4.47,1.13a3.5,3.5,0,0,1,.4,4.58c-2.72,4.13-7,7.5-5.79,13.57.1.49-1.61,5.11-4.48,6.28v-3c-.09-2.34-1.45-3.18-3.61-2.82s-2.32,2.17-2.07,3.81c.61,4.07,3.39,2.43,5.68,2l-.81,4-9.23-.12c.33-1.55-.67-3.29.6-4.69,3-3.29.81-4.78-2.08-6,.26-1.09.52-2.19.77-3.28,5.91-1.49,6.58-2.53,5.31-8.34a20.86,20.86,0,0,0-.8-2.3Z"/><path class="cls-1" d="M152.87,243.33c2.89,1.26,5,2.75,2.08,6-1.27,1.4-.27,3.14-.6,4.69l-2.71,1.27c-.43.2-1.09.29-1.24.62-.37.81.34,1.13.95,1.41.08.62.16,1.23.25,1.84-2.37-.07-6.1-2.43-5.14,3.06-5.29,1.7-8.53,7-6.51,10.63-1,1.27-2.7,1.83-3.19,3.53h-.17c-2.73.73-5.8-1-8.33,1.16-2.38-.52-5-.69-5.39,2.35-.45,3.27,2.15,3.43,4.6,3.27l1.66,2.22a2.11,2.11,0,0,1-.54.78c-3.23.75-5.69-1.81-8.7-2a40.32,40.32,0,0,1-2-4c-2.18-5.75-.62-7.86,5.61-7.74a19.67,19.67,0,0,1,4.47.17c5.5,1.36,7.83-1.8,9.42-6.25,1.4-3.93,2.77-7.9,6.91-9.92,1.31-.64,1.17-1.86,1.34-3,.26-1.74,1-3.81,2.69-3.79C153.24,249.75,152.55,246.29,152.87,243.33Z"/><path class="cls-1" d="M198.58,254.2c-4.17-1.15-5.6-5-7.59-8.11-1.65-2.61-3.16-3.82-5.85-1.36-2.23,2-4.65,2.07-6.54-.28s-1.27-4.79,1-6.59a7.14,7.14,0,0,0,2.77-6.58l1.06-1.24c1.68,2.32,2.33,7,6.8,3,.55,1.75-.15,4.4,2.56,4.72,2.45.29,3.25-1.78,3.91-3.71,2.43-.8,1.21-3.83,3-5,.66,1.5,1.15,3.26,3.32,1.47a5.79,5.79,0,0,1,4.45-1.4,37,37,0,0,1-1.39,4.72c-1.26,2.9-4.65-.9-5.89,1.63-.83,1.67,3.19,4.07-.71,5.67-1,.41-1.9,2-1.4,2.92C200,247.44,198.16,250.85,198.58,254.2Z"/><path class="cls-1" d="M199.73,229.06c-1.82,1.18-.6,4.21-3,5-1.83-2.4-3.73-4.35-6.46-1-4.47,3.93-5.12-.71-6.8-3,2.14-5.8,4.24-11.62,6.43-17.4.65-1.7,1.49-3.4,3.77-3.35.61,4.37-3.59,7.8-3.19,13.36,1.14-1.37,1.6-1.69,1.73-2.11,1-3.48,3.26-5.58,7-4.89,3.36.62,6.41,2.28,7.26,6,.93,4-2.39,5-5,6.34A19.12,19.12,0,0,0,199.73,229.06Zm1.78-8c-.21-1.72-1.08-3.28-3.16-3.51s-3.38,1.14-3.67,3.11c-.33,2.19.9,3.41,3,3.58S201.17,223.54,201.51,221.06Z"/><path class="cls-1" d="M199.73,229.06a18.45,18.45,0,0,1,1.66-1.11c2.63-1.37,6-2.35,5-6.34-.85-3.69-3.9-5.35-7.26-6-3.72-.69-5.93,1.41-7,4.89-.13.42-.59.74-1.73,2.11-.4-5.56,3.8-9,3.19-13.36,4.41-1.76,6.16,2,8.49,4.27s3.43,3.57,6.52.49,7.75-1.94,11.83-1.07c-.63,2-3.43,1.84-4.08,3.88l-2.28,2.23c-3.14,4.23-4.33.13-6.09-2a6.91,6.91,0,0,0,1,7l1.47,4.19-3,.88a5.79,5.79,0,0,0-4.45,1.4C200.88,232.32,200.39,230.56,199.73,229.06Z"/><path class="cls-1" d="M216.39,216.85c.65-2,3.45-1.83,4.08-3.88,8.08,1.52,8.69,3.71,3.77,13.36a11,11,0,0,0-5.82,1.73c-1.82-2.86,1.27-2.64,2.33-3.63,1.34-1.25,2.92-2.39,2.29-4.49-.52-1.74-2-2.51-3.73-2.73Z"/><path class="cls-1" d="M241.47,228.2c-1.27-2.66-3.39-3.24-5.77-1.87-4.38,2.51-4.25-.23-4-3.24,4.14-1.56,8.24-.56,12,.88,4.19,1.61,3.78,4.86,1.51,8.08l-3.67-3.82Z"/><path class="cls-1" d="M249.31,245.2c-3.75.18-7.54-.44-11.26.71-3.11,1-4-1.19-4.69-3.59l.27-.26c2.3.45,3.92-2.06,6.26-1.44.34,2.57,2.39,1.55,3.78,1.73C245.92,242.66,248.22,242.69,249.31,245.2Z"/><path class="cls-1" d="M158.15,229.41a20.86,20.86,0,0,1,.8,2.3c1.27,5.81.6,6.85-5.31,8.34C153.68,235.88,155.53,232.49,158.15,229.41Z"/><path class="cls-1" d="M261.31,252.2c-2.8-.71-5.58-1.48-8.4-2.1s-2.19-2.76-2.37-4.61C253.87,248.13,259.45,247.2,261.31,252.2Z"/><path class="cls-1" d="M277.16,267.25c-3.73-.75-8.6-.11-7.83-6.38C273.47,261.11,275.05,264.51,277.16,267.25Z"/><path class="cls-1" d="M218.42,228.06a11,11,0,0,1,5.82-1.73c.54,2.65-1.46,3.63-3.17,4.79l-2.14-.93-.46-.89C218.45,228.88,218.43,228.47,218.42,228.06Z"/><path class="cls-1" d="M149.5,367.1c-2.22.18-3.37,1.89-4.82,3.24-4.51,4.2-10.1,5.55-14.06,3.53s-4.72-4.79-2.51-8.54c.75-1.27,3.11-2.4,1.31-4.16-2-1.91-2.81.38-3.73,1.6-.79,1.05-1.46.77-2.52.38-1.92-.7-2.32.91-2.26,2.21.27,6-3.28,8.46-8.77,6-.75-.33-1.46-.77-2.19-1.16.75-2.08-.1-3.83-1-5.69a29.72,29.72,0,0,1-3.18-14.31c1.81-.19,2.63-1,1.69-2.82,3.22-2.71.07-6.14,1-9.1,2.06.24,1.84,2,2.27,3.35.77,2.47,3.57,3.51,4.39,1.64,2.57-5.92,4.43-4.58,9-1.53,3,2.05,4.7,5.56,4.41,6.8-1.17,5,2.2,7.22,4.79,9.53,3.64,3.25,6.63,2,8.36-2.76a4.84,4.84,0,0,1,1.45-2.47c2.83-1.69,1.66-3.52,1-5.91-1.34-4.63-6.25-5.92-8.19-9.65-1.23-2.38-2-2.78-3.78-.89-2.06,2.18-3.78,2.52-5.19-.72-.66-1.5-2-1.91-3.74-1.7-5.59.66-5.59.6-5-5.36l4.54-.9c3.63,1,2.33-1.8,2.59-3.39,5.24-.39,4,2.3,1.71,5.52,3.77-1.07,6.56.53,9.5.46-2.11,4.71,1.85,3.38,3.91,3.93-.16.67-.33,1.34-.49,2-.59.35-1.16.93-.48,1.42s1.46.27,2.21.37c2.28,2.17,4-.5,6-.7h1.84c1.54,2.26,3.65,4.13,2.31,7.52-1.9,4.77.51,8.59,5.44,9.72a19.93,19.93,0,0,0,9.31.22c1.08-.27,2.69-.85,3,.62,1.56,7.14,4.36,1.39,6.66.74.27,2,2.83,2.23,3.23,4.15-5-1.08-6,3.14-8,6-2.19-.69-2-2.8-2.59-4.42-.45-1.24-.76-2.48-2.07-3.19C159.29,354.53,151.28,358.41,149.5,367.1Zm-28.63-6.9c-.66-1.64-1.26-3.17-1.88-4.69-2.53-6.16-3.58-6.36-8.67-2.68-2.52,1.83-3,3.1-.53,5.32,1.16,1,1.58,2.88,2.59,4.15s.34,4.73,3.51,3.6A8.33,8.33,0,0,0,120.87,360.2Zm-1.12-12.57c.46.37.84.88,1.08.82a1.36,1.36,0,0,0,.87-.89c0-.23-.51-.83-.79-.82s-.66.46-1.16.88Z"/><path class="cls-1" d="M108.48,338.2c-1,3,2.2,6.39-1,9.1l-2.19,1.9c-2.81-.94-3.61.75-4,3h-1.7l-2-3.95c1.48-4.27-3.75-5.4-4.12-8.8,5.66-1.53.28-4.89,1.2-7.21,2.18-.37,3.14,3.77,5.82,1.6l2.07.3a3,3,0,0,0,2.59,2.21C105.51,338.35,107.05,338.2,108.48,338.2Z"/><path class="cls-1" d="M62.34,275.77c2.69-.47,4.78,1.41,4.6,5.34-.16,3.4-2.61,5.24-5.72,5.82-2.35.44-6.29-4.3-6.12-7.38C55.31,275.76,58.37,276.07,62.34,275.77Z"/><path class="cls-1" d="M93.5,339.46c.37,3.4,5.6,4.53,4.12,8.8-6.12-4.95-7.9-4.49-11.09,2.92l-1.28.07c-2.53-2.84-3.28-6.32-1.56-9.49C85.84,337.76,90.11,339.86,93.5,339.46Z"/><path class="cls-1" d="M100.52,333.85c-2.68,2.17-3.64-2-5.82-1.6a20,20,0,0,1-1.79-4c-.85-4.3,1.41-6.84,5.85-7,2.93-.07,5.94.71,8.77-.69.28,2.28-1.83,3.71-2.06,5.82l-1.94-.17a2.29,2.29,0,0,0-2.74-1.73,2.37,2.37,0,0,0-.81.36c-1.32.67-2.66,1.59-1.34,3.42C98.34,330.44,99.72,332.05,100.52,333.85Z"/><path class="cls-1" d="M122.75,327.67l-4.53.9c-2-2.5-4.38-3.94-7.69-3.24l-2-5.1c-.08-.69-.16-1.38-.23-2.07,1.77-1.69,5.09-.06,6.29-3,2,.56,2,2.58,2.9,3.89-2.42,1.1-.68,2.09.26,2.63C120.19,323.12,121.47,325.37,122.75,327.67Z"/><path class="cls-1" d="M61.47,267c-3.22.06-6-.1-6.1-3.81-.09-3.06,3.75-8.38,5.71-7.82,2.94.85,5.35,3,5.57,6.14C66.9,265.06,65.26,267.55,61.47,267Zm2.61-5.34a2.2,2.2,0,0,0-2-2.32,1.93,1.93,0,0,0-2.32,1.42,2.22,2.22,0,0,0,0,.45c-.17,1.54.51,2.62,2.15,2.6a2.23,2.23,0,0,0,2.22-2.19Z"/><path class="cls-1" d="M114.61,315.2c-1.21,2.89-4.53,1.26-6.3,3-3.09-1.43-4.24-3.46-2.41-6.74,1.35-2.41,1.5-5.49,4.08-7.21,1.42,2.66.49,6.22,3.2,8.39C113.65,313.47,114.13,314.34,114.61,315.2Z"/><path class="cls-1" d="M100.62,363.31c-6.09,3.67-13.39,3.2-17.41-1.12,2.27-.24,5,.94,6.35-2.06,4,.86,7-.72,9.2-4C99.84,358.41,96.33,361.87,100.62,363.31Z"/><path class="cls-1" d="M113.18,312.6c-2.71-2.17-1.78-5.73-3.2-8.39.94-3.88,3.28-5.9,7.4-5.57l3.59,4.11C114.31,304.2,113.8,304.86,113.18,312.6Z"/><path class="cls-1" d="M108.54,320.2l2,5.1c-1.58,3.78-.3,8.94-5.35,11a3,3,0,0,1-2.59-2.21c4.16-1.4,4.34-4.27,2.88-7.75.23-2.11,2.34-3.54,2.06-5.82Z"/><path class="cls-1" d="M100.62,363.31c-4.29-1.44-.78-4.9-1.87-7.16.29-1.32.59-2.63.88-3.94h1.7C104.6,356.14,102.6,359.72,100.62,363.31Z"/><path class="cls-1" d="M89.56,360.12c-1.36,3-4.08,1.83-6.35,2.07-1.74-3.24.27-5.71,1.7-8.31l3.33,4.54Z"/><path class="cls-1" d="M88.24,358.42l-3.33-4.54c.11-.87.23-1.75.34-2.63l1.28-.07C89.6,353,88.14,355.9,88.24,358.42Z"/><path class="cls-1" d="M105.29,349.2l2.17-1.85c.94,1.84.12,2.63-1.69,2.82Z"/><path class="cls-1" d="M179.52,360.2c-.4-1.92-3-2.14-3.23-4.15l5.15-7.07c.14.47.29,1,.44,1.42.77,2.51,3.83-1.19,4.36,1.55.38,1.93-1,3.86-.31,5.89.47,1.38.85,2.79,1.75,5.82.53-4.69,1.51-5,3.25-2.23,1.37,2.22,3.64,2.09,5.8,1.32,1.51-.54,2.72-1.78,2.29-3.42-.68-2.65-1.21-5.66-2.85-7.67-3-3.74-4.45-8.45-7.69-12l2-.27c.44.45,1.15,1.36,1.27,1.29,5.8-3.5,7.6,2.83,8.09,5,.74,3.27,2.61,6.29,2.66,9.71.46,2.94-4.05,7.93,3.32,8l-.3,1.82-1.84,2c-2.18-2.49-3.1-.28-4.23,1.13-.23,0-.47,0-.7-.06-3-1.63-5.94-2.48-8.92,0-1.44-3.78-3-2.07-4.47-.06l-3-2-1-3c1-1.22.27-1.73-.88-2Z"/><path class="cls-1" d="M149.5,367.1c1.78-8.69,9.79-12.57,17.38-8.44,1.31.71,1.62,2,2.07,3.19.59,1.62.4,3.73,2.59,4.42a6.76,6.76,0,0,0,0,.9l-.36,1.2c-5.86,0-11.67,1.8-17.63.24A20.14,20.14,0,0,1,149.5,367.1Z"/><path class="cls-1" d="M253.09,369.2c-6.26,6.07-8,6.19-14.11,1,.54-1.47.42-2.76-1-3.68-.36-1.82-.73-3.63-1.09-5.44,2.13-.16,3.33.71,3.88,2.89.8,3.13,3.46,3.17,6,3,2.79-.13,3.22-2.65,3.09-4.34-.46-6.38,5.61-7.49,8.53-11.08a2.29,2.29,0,0,1,3.24.12,2.42,2.42,0,0,1,.27.36c.86,1.48-.23,2.65-1.64,3-4.57,1-4.7,4.49-4.69,8.09l-1.1,3.77Z"/><path class="cls-1" d="M238,366.54c1.45.93,1.57,2.22,1,3.69-2.59,0-5.21-.5-7.07,2.2-1,1.46-1,4.67-3.56,3.9s-5.48-1.26-7.16-3.85a22,22,0,0,0-1.87-2.22c0-1,.07-2.05.11-3.08a7.17,7.17,0,0,0,1.52-1.86c1.25-3.48,4.74-3.29,7.32-4.18s2.6,2.32,3.71,3.72C233.62,366.93,235.47,367.73,238,366.54Z"/><path class="cls-1" d="M270.38,374.85a15,15,0,0,1,2,.25c3.84,1,8.74,1.77,8.85,6.54s-4.45,6.95-8.4,8.73c-2.54,1.15-4.25.18-5.5-2.44-2.14-4.51-1.53-8.54,1.23-12.46Zm5.9,9.08c-.32-1.94-1.29-3.4-3.48-3.24a3.17,3.17,0,0,0-3,3.3c-.1,2.25,1.31,3.24,3.44,3.14,1.91-.1,2.94-1.2,3-3.2Z"/><path class="cls-1" d="M270.38,374.85l-1.85.62c-3.06-7.25-10.08-4.69-15.44-6.23l1.36-2.31c6.25.93,11.63-.3,15.14-6.14a2.07,2.07,0,0,0,.81.56c.46,5.64,4.38,5.24,8.33,4.79l.06,4.06-.61,1C274.27,369.63,271.56,370.61,270.38,374.85Z"/><path class="cls-1" d="M219.43,367.2c0,1-.07,2-.11,3.08-2.19.32-3.12,2.34-4.69,3.5-4.29,3.19-6.13,2.93-9.36-1.31a22.58,22.58,0,0,0-2.07-2.08c.17-1.06.33-2.11.5-3.17l1.84-2c4,4.18,6.25,4.1,10.29-.33C217,365.71,217.85,367,219.43,367.2Z"/><path class="cls-1" d="M171.17,368.37l.36-1.2c3.62-.4,7.51,2.29,10.88-1l3,2,.12,1.09c-.73.65-1.47,1.3-2.19,2C177.43,376.75,173.84,375.9,171.17,368.37Z"/><path class="cls-1" d="M192.46,374.94c4.28-1.67,5.91,2.47,6.15,4.43.42,3.23-2.13,6.22-5.37,7.5-2.83,1.13-4.7-.65-5.7-3.27-.41-1.08-.66-2.21-1-3.32a4.92,4.92,0,0,1,1.3.64c1.83,1.82,3.95,3.56,6.35,1.54,2.68-2.25.45-4.33-1-6.27A10.45,10.45,0,0,1,192.46,374.94Z"/><path class="cls-1" d="M192.46,374.94a10.6,10.6,0,0,0,.75,1.25c1.46,1.94,3.69,4,1,6.27-2.4,2-4.52.28-6.35-1.54a4.92,4.92,0,0,0-1.3-.64C185.32,375,188.8,374.85,192.46,374.94Z"/><path class="cls-1" d="M189.85,368.26c3-2.47,6-1.62,8.92,0-2.72,3.54-5.8,3.68-9.18,1C189.67,368.91,189.76,368.58,189.85,368.26Z"/><path class="cls-1" d="M203.7,367.2c-.17,1.06-.33,2.11-.5,3.17-2.8,2.16-2.81-.78-3.73-2C200.6,366.92,201.52,364.71,203.7,367.2Z"/><path class="cls-1" d="M189.85,368.26c-.09.32-.18.65-.26,1-1.34,2.07-2.71,1.55-4.09,0l-.12-1.09C186.89,366.2,188.41,364.48,189.85,368.26Z"/><path class="cls-1" d="M278.18,371.2l.61-1a2.1,2.1,0,0,1,1.64,2Z"/><path class="cls-1" d="M268.25,396l.76-.7-.35,1Z"/><path class="cls-1" d="M255.55,363.2c0-3.6.12-7.07,4.69-8.09,1.41-.31,2.5-1.48,1.64-3a2.28,2.28,0,0,0-3.15-.75,2.42,2.42,0,0,0-.36.27c-2.92,3.59-9,4.7-8.53,11.08.13,1.69-.3,4.21-3.09,4.34-2.55.12-5.21.08-6-3.05-.55-2.18-1.75-3.05-3.88-2.89l-3.3-2.93c.35-2.14.69-4.29,1-6.43,1.51-.23,3.18-.43,4.2.84,2.48,3.06,5.67,2.33,8.9,2.2a3.15,3.15,0,0,0,3.14-1.87c.83-1.83-.64-2.24-1.86-2.79-2.45-1.09-3.07-3-1.95-5.28,2.25-4.69,6.23-6.66,11.63-5.94q2.49,3.57,5,7.13c-.15.72-.53,1.5.34,2a8.22,8.22,0,0,0,.79-.87l4.7-4.85,1.79-1.25c1.53-.45,3.19-.7,4.12-2.61-3.72-1-4.12-6.19-8.45-6.42l-.27-1.72c2.47-1.86,5.33-3.83,3-7.34-2-3-4.7-3.3-7.13-.12l-3.74.51h-1.35l-.71.07c-6.48,4-10.19,1-12.75-5-.06-.13-.26-.19-.4-.28.36-1.53.71-3.05,1.07-4.57l6.16-8.31,2.47-1.27c1.4.29,3-.23,4.25,1,0,1.78-3.35,2-2.31,3.82,1.4,2.46,4.22,1,6.37,1.42l.94,1a2.09,2.09,0,0,0,2.19,1.84c2.06,1.15,3.63,1.32,3.77-1.76.07-1.4-.15-2.92,1-4.07,1.87-.56,1.67-1.3.18-2.15.06-.55.12-1.1.19-1.64,2.18-1.3,2.64-3.19,2.07-5.58s.8-3.85,2.62-4.89c2.1-1.2,3.37-.14,4.29,1.83.66,1.42,2.13,1.34,3.47,1.47,5,.49,9.84,6.55,9.12,11.55-.75,5.17-3.78,2.4-7.28,1.08,3.39,6,.92,9.63-3.13,12.93a13.52,13.52,0,0,0-2.79,4.1c-.61,1.06-.85,2.81.41,3,3,.51,6,1.66,9,.83a2.37,2.37,0,0,0,1.63-2.93,1.75,1.75,0,0,0-.12-.32,4.54,4.54,0,0,0-1.6-2.4c-1.87-1.17-3.6-2.08-1.17-4.37,2-1.86,3.74-3.27,6.38-.86,2.43,2.22,5.09,4.13,7.21,6.73,3.37,4.16,3.41,5.78-.51,9.61l-2.81.14c-2.3-.85-4.59-1.71-6.91-2.52-.93-.33-2-.65-2.69.34a2.25,2.25,0,0,0,.42,2.74c1.18,1.36,2.32,2.94,3.83,3.77,1.92,1.06,3.44,1.64,2.12,4.32-.93,1.87.82,2.31,2.15,2.15,2.89-.36,4.53,1.47,6.31,3.17.07.86.14,1.71.22,2.56-2.33,1.64-4,3.33-.41,5.41-.48,2.72-2.53,3.06-4.75,3.15l-.4.09.31.53a.84.84,0,0,1,.19.68c-1,2.8-3.56,4.88-3,8.43.24,1.56-1.63,2.75-3.5,2.77a3.37,3.37,0,0,1-3.63-2.75c-.45-3.27-2.43-5.28-4.78-7.15l.36-1.8a2.29,2.29,0,0,0,.41-.28c1.74-1.62,5.42-3.62,3.79-5.45-2.12-2.39-3.24,1.78-4.79,3-2.91,2.28-5.85,2.48-8.58.29s-3.88-5.3-2-8.8c.71-1.29,1.44-2.57,2.16-3.85a16.08,16.08,0,0,1,7.15,1.87c1.36.62,2.91,2.07,4.36,0,1.12-1.65,1.43-3.14.15-5s-2.19-3.47-4.62-1.77c-3.34,0-7-.64-8,4h0c-3.58,1.71-4.11,5.26-5.18,8.5a2.54,2.54,0,0,0-2,3,3.31,3.31,0,0,0,.12.42h0a2.34,2.34,0,0,0-2.44,1.09l-2.52,4.78Z"/><path class="cls-1" d="M269.47,307.2c-1.18,1.15-1,2.67-1,4.07-.14,3.08-1.71,2.91-3.77,1.76a2.78,2.78,0,0,0-2.19-1.84l-.94-1c-1.1-2.39-1.55-4.37,1.93-5.24,3.3-.81,3.32-4.49,4.85-7,1.92,1.82.73,3.87,1.51,5.47l-.18,1.64Z"/><path class="cls-1" d="M250.76,305.29l-6.16,8.31-2.93-.38.1-2c1.65-3.45,2.65-7.29,5.68-10h1.16C249.64,302.42,250.67,303.61,250.76,305.29Z"/><path class="cls-1" d="M250.75,305.29a6.46,6.46,0,0,0-2.14-4c1-1.91,1.74-5.31,4.42-3.87,2.11,1.13,1.9,4.33.2,6.64Z"/><path class="cls-1" d="M296.66,335.39l2.81-.14c.72.62,1.9,1.15,2.06,1.9.21,1-1,1-1.81,1C297.76,338.29,296.53,337.58,296.66,335.39Z"/><path class="cls-1" d="M312.65,353.11c3.24.31,5,2.08,4.94,5.45-.09,2.88-1.66,4.77-4.62,4.6-3.41-.2-5.48-2.29-5.4-5.78C307.65,354.37,309.74,353.2,312.65,353.11Z"/><path class="cls-1" d="M301.7,357.33c-3.61-2.08-1.92-3.77.41-5.41,2.52-1.05,3.56-4.11,6.41-4.72,0,4.06-3.39,5.77-5.62,8.3-1.83-.43-1.22,1-1.35,1.81Z"/><path class="cls-1" d="M301.55,357.31c.13-.85-.48-2.24,1.35-1.81C302.68,356.28,302.43,357,301.55,357.31Z"/><path class="cls-1" d="M296.86,361.1l-.31-.53.4-.09A1,1,0,0,1,296.86,361.1Z"/><path class="cls-1" d="M282.49,361.28l-.36,1.8-3.4,3.06c-4,.45-7.87.85-8.33-4.79C274.43,361.2,278.47,362.68,282.49,361.28Z"/><path class="cls-1" d="M335.29,361a3.43,3.43,0,0,1-3.17-3.67v0a2.61,2.61,0,0,1,2.54-2.68,3.55,3.55,0,0,1,.46,0,3.27,3.27,0,0,1,3.21,3.33c0,.12,0,.24,0,.36C338.22,360.13,337.07,361,335.29,361Z"/><path class="cls-1" d="M181.44,349l-5.15,7.08c-2.3.65-5.1,6.4-6.66-.74-.32-1.47-1.93-.89-3-.62a19.93,19.93,0,0,1-9.31-.22c-4.93-1.13-7.34-4.95-5.44-9.72,1.34-3.39-.77-5.26-2.31-7.52-.21-.78-.42-1.56-.64-2.34.18-.58.35-1.15.52-1.73,1.37-2.29-.23-4.53-.11-6.8.4-3,1.21-5.77,4.23-7.24l1.73-.16a8.38,8.38,0,0,1,1,1.68c1.45,4.4,3.28,6.28,8.93,5.11s5.45-5.28,7.39-8.5l1.56-.61a28.4,28.4,0,0,0,3.9-.45c2.64-.63,6.17-.62,7.65-2.33,1.89-2.19-1.54-5.11-1.52-7.67,0-5.41-2.74-4.07-5.71-3a6.26,6.26,0,0,1-.82-.31c-3.37-4.9-4.29-4.88-8-.47a36.85,36.85,0,0,1-4.87,4.12l-3.82.28h-2.42c.4-4.23-.72-7.39-5.58-7.9l-.27-1c1.49-6.33,3.61-12.54,3.66-19.14,0-1.46-.48-3.05-.08-4.38,2.69-9,2.54-9.64-4.64-15.2-.09-.61-.17-1.22-.25-1.84.1-.68.19-1.35.29-2l2.71-1.27,9.23.12,3.72.22c.74,4.24,11,9.67,14.27,7.24,1.74-1.3,2.67-3.69,4-5.59,1.34.46,2.2,2.15,4,1.53.14,1.87,1.66,2.79,2.75,4,1.67,3.56,3.56,6.77,8.39,5.56a6.37,6.37,0,0,1,.82,4.07l-.93,2.07-1,.92c-3.76.35-7.52.67-11.28,1.06-5.13.53-3.8,5.58-5,8.34s2.92,2.35,5,2.84c.08.26.17.53.27.79.34,3.64-.54,7.92,4.68,9l-.51,2.82a2.43,2.43,0,0,0,1.76,2.28c0,.61.09,1.21.14,1.82-1.45,1.76-.71,3.25.87,4.18,2.49,1.47,5.74.54,6.87-1.09,3.8-5.5,9-3.83,14-3.84l3.38,5.63c-.21,2.13.9,3.17,2.89,3.11,2.68-.08,3.43,1.69,4.59,3.67,2.11,3.58.29,6.2-1.06,9.27-1.68,3.83-6.18,6.18-5.76,11,.16,1.83-.14,3.38-2.19,3.87a3.16,3.16,0,0,1-3.89-2.22l0-.06c-1-2.9-3-3.68-5.8-3.48.41-1.4.83-2.81,1.2-4.22.5-1.87-.64-3.35-2.13-3.09-3.69.66-7.63-.66-11.09,1.46l-7.73-2.31a5.45,5.45,0,0,1-1.38-3.58c-.24-.49-.35-1.21-.73-1.41-.64-.34-1,.25-1.21.86l-.86,1.27c-2.14-.07-3.7.64-4,3h0c-3.33.75-7.37,5.35-6.53,8.38.91,3.29,2.8,7,6.78,7,5,0,3.76,2.26,2.52,4.92C182.75,346.72,182.06,347.85,181.44,349Z"/><path class="cls-1" d="M208.46,333.26c2.75-.2,4.8.58,5.8,3.48a3.17,3.17,0,0,0,3.85,2.3l.06,0c2.05-.49,2.35-2,2.19-3.87-.42-4.87,4.08-7.22,5.76-11,1.35-3.07,3.17-5.69,1.06-9.27-1.16-2-1.91-3.75-4.59-3.67-2,.06-3.1-1-2.89-3.11,1.93.9,4,2.29,3.84-1.72a11,11,0,0,1,1-3.16c2,1.31,3.84,3,3.66,5.55-.2,2.76,0,5,3.37,4.33,2.75-.54,5.91-2,5.36-5.35-.72-4.41,1-7,4.46-9a3.18,3.18,0,0,0,1.83-3.22c-.38-6.24-6.21-9.53-11.42-6.41a5,5,0,0,1-1.82.7c-7.25,1.06-7.25,1-6.53,8.47.09,1,.08,2,.11,3a4.25,4.25,0,0,1-3.12-2.24s-6.77-8.61-6.82-8.66l-.31-.32c.38-4.29-1.89-6.32-5.88-6.87a4.52,4.52,0,0,0-2.41-2.34c.16-.91.32-1.82.47-2.72,0-2.77.24-5.44,3-7h.34c.18,2.16-1.09,4.32.11,7.88a18.09,18.09,0,0,0,2.34-7.71l3.63-5.1c.2,1,.32,2,.6,2.93.73,2.45,2.78,2.43,4.44,1.7,2-.88.26-2.17-.21-3.26a4.17,4.17,0,0,1-.43-2.55,13.81,13.81,0,0,1,5.89,8.4c-7.89-3-10.15,3.9-14.53,7.85,10.4,2.76,13.81,1.26,15.12-6.27l1.68-1c2.93,1.63,5.81.19,8.71-.12l.46.45c-.76,3.8.76,7.63,4.36,7,3.2-.52,7.11-.93,10-3.31,1.68,1.39,2.38,2.75,0,4.2-1.83,1.13-3.5,2.61-5.69,2.92-2.55.36-2.5,1.49-1.36,3.34a10.69,10.69,0,0,1-.37,11.78c-1.82,2.77-1.17,6.29-3.86,8.77-1.51,1.39.81,1.83,2,2.1,0,.66-.07,1.32-.1,2-1.94,2-3.84,4-5.81,6-1.11,1.11-3.4,1.86-2.44,3.72a7.12,7.12,0,0,0,4.1,3.26c2.29.57,1.95-2.1,2.75-3.35,1-1.61,1.07-3.89,3.26-4.69.14.09.34.15.4.28,2.56,6,6.27,9,12.75,5-.6,1.75-1.42,3.59,1.61,3.8l.75,3.76c-.57,2.19-.49,4.9-3.18,5.72s-4.29-.93-5.56-3.06c-.92-1.56-2.43-1.47-4-1.29a2.92,2.92,0,0,1-1.56-3c-.35,1.54-1.91,1.84-2.67,2.88a9.41,9.41,0,0,1-2.71-1c-2.21-1.74-4.44-3-7.13-1.17-2.08,1.39-3.28,3.31-2.4,5.88,1,2.9-.68,7.52,4.77,7.65-.41,1.15-3.37,1.92-1.36,3.18a5.66,5.66,0,0,0,6.46-.52c1.49-1.38.24-2.62-1.37-3.22q1-2,2.11-3.93l2.17-1.34,2,.23c-.31,8.45-.31,8.45-8.46,10.76a6.77,6.77,0,0,0-1.92.53c-1.37.93-.13,1.64.34,2.39-.35,2.14-.69,4.29-1,6.43-1.65-.41-4,1.34-4.9-.69-1.19-2.66-2.48-1.66-4.25-1a17.19,17.19,0,0,1-4.83.69c-4.16.2-6.31,1.74-4.46,6.21-3.1-1.83-6.2-3.38-9.28.05-7.37-.06-2.86-5.05-3.32-8,3.31.69,6.58-.24,9.87-.24,2.55,0,2.82-1.28,2.39-3.58-.95-5.07-3.88-9.06-6.5-13.25,0-1.59-.11-3.18-.16-4.77Z"/><path class="cls-1" d="M218.47,229.3l.46.89a7.44,7.44,0,0,0-1.47,4.66c-.07,3.76-1.29,6.28-5.72,6.55s-3.28,3.17-2.16,5.8c-2.16.44-2.64,2.17-3.1,4-1,4.05-3.27,5.39-7.1,3.16l-.8-.14c-.42-3.34,1.4-6.75-.47-10.12-.5-.91.39-2.51,1.4-2.92,3.9-1.6-.12-4,.71-5.67,1.24-2.53,4.63,1.27,5.89-1.63a37,37,0,0,0,1.39-4.72l3-.88Z"/><path class="cls-1" d="M199.38,254.33c3.83,2.23,6.09.89,7.1-3.16.46-1.8.94-3.53,3.1-4h-.08l.84.84c.18,1.94-2.2,4.61.68,5.64,1.8.64,4.49,3.2,6.37-.34l.2-.2c1.18.53,2.52,1.53,3.66.57,1.59-1.33-.37-2.22-.85-3.26a1.52,1.52,0,0,1,.86-2.35,7.25,7.25,0,0,0,4.36,3.26c0,.33.06.77-.12,1-2.54,2.94-6.45,4.83-6.3,9.86,0,.64-5.93.82-8.9.15s-5.78-4.49-7.18,1.49c-.05.23-1.55.13-2.37.18l-.56-.78c-.64.46-.09.77.14,1.12l.3,2.78c-4.83,1.21-6.72-2-8.39-5.56,2.25-.42,3.56-2.5,6.48-2.4S199.68,256.12,199.38,254.33Z"/><path class="cls-1" d="M225.82,275c-1.31,7.53-4.72,9-15.12,6.27,4.38-3.95,6.64-10.83,14.53-7.85C225.42,274,225.62,274.51,225.82,275Z"/><path class="cls-1" d="M188.21,286.43c-2.06-.49-6.18,0-5-2.84s-.15-7.81,5-8.34c3.76-.39,7.52-.71,11.28-1.06-.33,1.25-.66,2.51-1,3.76l-.23.22c-6-1.61-8.7,1.31-9.56,6.85A8.71,8.71,0,0,1,188.21,286.43Z"/><path class="cls-1" d="M229,257.33c2.52.3,4.4,1.44,4.2,4-.23,3-2.26,4.73-5.28,4.74-2.44,0-4.23-1.38-4.08-3.93C224,259.09,226.15,257.68,229,257.33Z"/><path class="cls-1" d="M236.21,274c-2.9.31-5.78,1.75-8.71.12-2.72-6.93,2.72-6.11,6.51-6.85l2.54,1.46C236.44,270.44,236.32,272.2,236.21,274Z"/><path class="cls-1" d="M205.47,278.1c-.15.9-.31,1.81-.46,2.72-1.67.71-2.13,2.41-3.08,3.73s-.87,4.51-3.86,3.17c-2.82-1.27-.65-3.4-.46-5.16.15-1.47.43-2.92.65-4.39l.23-.22Z"/><path class="cls-1" d="M236.55,268.68,234,267.2l2.44-6.9a24.26,24.26,0,0,1,3.85.93c1.73.71,3.51,1.93,3.63,3.8.17,2.48-2.35.62-3.44,1.52A20.47,20.47,0,0,1,236.55,268.68Z"/><path class="cls-1" d="M225.62,251.36a7.25,7.25,0,0,1-4.36-3.26c1.24-3.45,3.54-3.42,6.29-1.93,0,1.07.09,2.14.13,3.21Z"/><path class="cls-1" d="M214.94,266.2l-3.63,5.1-2.45-.17h-.34C208,266.78,209.84,265.34,214.94,266.2Z"/><path class="cls-1" d="M227.68,249.38c0-1.07-.08-2.14-.13-3.21C229.72,247.2,229.62,248.2,227.68,249.38Z"/><path class="cls-1" d="M217.39,253.34l-1.13-.81.51-.52.82,1.13Z"/><path class="cls-1" d="M200.52,273.27l.93-2.07C202.38,272.44,201.67,273,200.52,273.27Z"/><path class="cls-1" d="M210.34,248l-.84-.84Z"/><path class="cls-1" d="M255.66,265.7c-.65-.11-1.46-.52-1.93-.27-5.75,3-7.77-1.81-10.39-5-1.83-2.27-2.51-5.25-5-7.28-1.76-1.45-.63-3.39,1.07-4.55,2.17-1.48,5.45-2.68,6.48,0,1.55,4,4.18,3.64,7.12,3.57s5.06,1.5,7.59,2.2a6.49,6.49,0,0,0,.11.77c.79,4-1.77,7-3,10.31Z"/><path class="cls-1" d="M251,278.13c-2.88,2.38-6.79,2.79-10,3.31-3.6.59-5.12-3.24-4.36-7,3.28-.58,6.64,1.83,10-1.48,1.83-1.8,2.89,2.1,4.32,3.4Z"/><path class="cls-1" d="M276.37,273c-.28,2.58-1.69,4-4.16,4-2.69.07-4.38-1.37-4.54-4.09a3.88,3.88,0,0,1,4.22-4.34C274.46,268.63,275.84,270.63,276.37,273Z"/><path class="cls-1" d="M261.28,271.38c-.86,4,.2,7.92-4.07,9.67-2,.81-3.16.63-2.62-1.52a56.19,56.19,0,0,1,3.28-8.78,2.09,2.09,0,0,1,2.64-1.32l.23.09C261.73,270.05,261.3,271.28,261.28,271.38Z"/><path class="cls-1" d="M257.69,265.39c1.28-3.36,3.84-6.34,3.05-10.31C263.68,259.55,262.78,262.59,257.69,265.39Z"/><path class="cls-1" d="M265.13,262c-.33.51-.72,1.26-1.34.56-.25-.28.14-1.12.23-1.7Z"/><path class="cls-1" d="M241.5,228.26c0,1.48.1,3,0,4.44a4.34,4.34,0,0,1-3.85,4.43c-1.76.27-3.34-.19-3.92-2.13-.7-2.36.34-4.13,2.09-5.63s3.7-1.12,5.65-1.14Z"/><path class="cls-1" d="M233.36,242.33l-.24-.3h.51Z"/><path class="cls-1" d="M185.53,256.05c-1.29,1.9-2.22,4.29-4,5.59-3.25,2.43-13.53-3-14.27-7.24l1.85-.13,3.37.29c.36,2.13.43,4.42,3.46,1.76,2.45-2.14,5.71-.66,8.55-1.25Z"/><path class="cls-1" d="M185.53,256.05l-1-1c-.33-1.36-3.08-2.38-1.74-3.43,1.62-1.28,4.28-2.2,6.45-1.18,1.63.76,2.1,2.84,1.76,4.66a8,8,0,0,1-1.51,2.46C187.73,258.2,186.87,256.51,185.53,256.05Z"/><path class="cls-1" d="M172.52,254.56l-3.37-.29a8.32,8.32,0,0,1,.71-1.85c.79-1.14,1-3.14,2.95-2.82a3.18,3.18,0,0,1,2.22,1.7C175.47,253.13,173.6,253.63,172.52,254.56Z"/><path class="cls-1" d="M193.58,256.13l.22.27h-.44Z"/><polygon class="cls-1" points="193.36 256.35 193.22 255.97 193.58 256.13 193.36 256.35"/><path class="cls-1" d="M151.6,259.2c7.18,5.56,7.33,6.24,4.64,15.2-.4,1.33.1,2.92.08,4.38,0,6.6-2.17,12.81-3.66,19.14-2.12.75-3.94-.52-6.1-1.42.3,2.88-1.88,5.57,1.91,7.55l-4.71,1.33c-1.62-2.14-4-2.79-6.14-1.67s.45,3.14,0,4.79a3.77,3.77,0,0,0,.19,1.45l-.66.63c-3.63-1.48-2.34-6-4.93-8.08l7.78-1.3c5.44-.95,6.84-4.43,3.26-8.8-1.81-2.21-1.83-3.39,1-4.23.7,1.21,2,2.65,3,1.25,1.62-2.22,5.54-1,6-4.39.06-.46-.11-1.36-.25-1.38-6-.7-1-4.46-1.51-6.67-4.24.67-5.55,5.71-9.83,5.61-.28-3.15-.14-6.64-5-6.12.49-1.7,2.23-2.26,3.19-3.53a31.81,31.81,0,0,1,5.72,1.13c1.93.75,3.69,1.71,5.29-.3a5.88,5.88,0,0,0,.88-6c-1-2.6-3-4.18-5.38-5.43C145.5,256.77,149.23,259.13,151.6,259.2Zm2.53,4.86c-.58,1.91-1,3.29.49,4.32.15.11.69-.05.83-.25C156.58,266.58,155.64,265.52,154.13,264.06Z"/><path class="cls-1" d="M113.18,312.6c.62-7.74,1.13-8.38,7.79-9.85l1.75,1.15c-.54,3.93.09,7.24,4.54,8.5-.36,3.36,2.26,4.9,4.17,6.88-1.67,4.46,1.53,3.25,3.73,3.2a5.54,5.54,0,0,0,2.17,2.87l.18,3.91-1,1c-2.94.07-5.73-1.53-9.5-.46,2.34-3.22,3.53-5.91-1.71-5.52a.89.89,0,0,1-.12-.55c-1.57-3.08-3.19-6.09-7.55-4.63h-.17c-1-1.31-1-3.33-2.9-3.89Z"/><path class="cls-1" d="M136.76,276.42c4.81-.52,4.67,3,5,6.12a1.76,1.76,0,0,1-.37.56c-2.45.8-7.12.27-6.56,3.09.51,2.59,4.52-.23,7-.18a2.78,2.78,0,0,1,2.49,2.11c-2.81.84-2.79,2-1,4.23,3.58,4.37,2.18,7.85-3.26,8.8l-7.85,1.35a2.55,2.55,0,0,1-.05-2.44c1-.19,1.92-.34,2.86-.59s2.63.09,2.67-1.49-1.38-1.6-2.51-1.75c-.8-.1-1.62-.1-2.43-.15-.14-.52-.29-1-.43-1.56.28-1.59.48-3.16-.91-4.4-.2-.29-.41-.58-.62-.86a2.92,2.92,0,0,0-2-2.15c-.06-.31-.11-.62-.16-.93a2.11,2.11,0,0,0,.54-.78c4-1.74,5.68-5.41,7.46-9Z"/><path class="cls-1" d="M153.56,319.2c-3,1.47-3.83,4.24-4.22,7.24l-3.7-.2c-.13-3.33,2.43-7.6-3.55-8.86-.91-.19-1.23-3.14-1.83-4.82.16-.2.33-.39.49-.58,2.89-.31,3.64-2.32,3.8-4.8,2.28.37,5.38-1,5.81,3.17.12,1.19,2,1.33,3.28,1.7l.07.19Z"/><path class="cls-1" d="M145.64,326.2l3.7.2c-.13,2.27,1.47,4.51.1,6.8-3.4-5.63-6.07-3.53-8.54.8-.06.11-.29.13-.44.19-2.06-.55-6,.78-3.91-3.93l1-1c2.64-1.43,1.77-2.7-.18-3.91a5.54,5.54,0,0,1-2.17-2.87l1.19-1.21C139.09,323.59,140.43,328.54,145.64,326.2Z"/><path class="cls-1" d="M127.26,312.4c-4.45-1.26-5.08-4.57-4.54-8.5C125.39,306.11,127.5,308.63,127.26,312.4Z"/><path class="cls-1" d="M132.73,296.08c.81.05,1.63.05,2.43.15,1.13.15,2.54.3,2.51,1.75S136,299.2,135,299.47s-1.9.4-2.86.59C132.33,298.73,132.53,297.41,132.73,296.08Z"/><path class="cls-1" d="M136.35,321.27l-1.19,1.21c-2.2,0-5.4,1.26-3.73-3.2l3.94-.33,1.32.21C136.58,319.87,136.47,320.57,136.35,321.27Z"/><path class="cls-1" d="M128.75,287.11a2.92,2.92,0,0,1,2,2.15c-.79.67-1.8,1.22-2.6.4S128.11,287.87,128.75,287.11Z"/><path class="cls-1" d="M131.39,290.12c1.39,1.24,1.19,2.81.91,4.4C130.28,293.41,130.13,291.91,131.39,290.12Z"/><path class="cls-1" d="M140.26,312.52a3.44,3.44,0,0,1-3.14-1.94l.66-.62a4,4,0,0,1,3,2A4.6,4.6,0,0,0,140.26,312.52Z"/><path class="cls-1" d="M136.69,319.2l-1.32-.21c.27-.81,0-2.36,1.45-1.85C137.71,317.41,137.3,318.49,136.69,319.2Z"/><path class="cls-1" d="M164.39,250.2c-2.29.43-5.07,2.07-5.68-2-.25-1.64-.16-3.43,2.07-3.81s3.52.48,3.61,2.82v3Z"/><path class="cls-1" d="M146.46,262.26c2.36,1.25,4.41,2.83,5.38,5.43a5.88,5.88,0,0,1-.88,6c-1.6,2-3.36,1-5.29.3a31.81,31.81,0,0,0-5.72-1.13C137.93,269.26,141.17,264,146.46,262.26Z"/><path class="cls-1" d="M136.59,276.4c-1.78,3.59-3.46,7.26-7.46,9l-1.66-2.2c2-1.63,1.78-3.57.79-5.62C130.79,275.44,133.86,277.13,136.59,276.4Z"/><path class="cls-1" d="M128.26,277.56c1,2,1.21,4-.79,5.62-2.45.16-5,0-4.6-3.27C123.29,276.87,125.88,277,128.26,277.56Z"/><path class="cls-1" d="M151.64,255.33c-.1.68-.19,1.35-.29,2-.61-.28-1.32-.6-.95-1.41C150.55,255.62,151.21,255.53,151.64,255.33Z"/><path class="cls-1" d="M190.23,233.06c2.73-3.34,4.63-1.39,6.46,1-.65,1.93-1.45,4-3.9,3.71C190.08,237.46,190.78,234.81,190.23,233.06Z"/><path class="cls-1" d="M201.51,221.06c-.34,2.48-1.74,3.35-3.8,3.18s-3.36-1.39-3-3.58c.29-2,1.53-3.35,3.67-3.11S201.3,219.34,201.51,221.06Z"/><path class="cls-1" d="M218.47,229.3l-7.93-1c-.49-1.4-1-2.79-1.46-4.19,6.23,1.61,6.23,1.61,5-5l2.28-2.23,2.92.36c1.75.22,3.21,1,3.73,2.73.63,2.1-.95,3.24-2.29,4.49-1.06,1-4.15.77-2.33,3.63C218.43,228.47,218.45,228.88,218.47,229.3Z"/><path class="cls-1" d="M214.11,219.08c1.2,6.59,1.2,6.59-5,5a6.87,6.87,0,0,1-1.06-7C209.78,219.2,211,223.31,214.11,219.08Z"/><path class="cls-1" d="M105.18,336.36c5-2.09,3.77-7.25,5.35-11,3.31-.7,5.73.74,7.69,3.24-.64,6-.64,6,5,5.36,1.73-.21,3.08.2,3.74,1.7,1.41,3.24,3.13,2.9,5.19.72,1.8-1.89,2.55-1.49,3.78.89,1.94,3.73,6.85,5,8.19,9.65.69,2.39,1.86,4.22-1,5.91a4.84,4.84,0,0,0-1.45,2.47c-1.73,4.73-4.72,6-8.36,2.76-2.59-2.31-6-4.56-4.79-9.53.29-1.24-1.36-4.75-4.41-6.8-4.52-3.05-6.38-4.39-9,1.53-.82,1.87-3.62.83-4.39-1.64-.43-1.38-.21-3.11-2.27-3.35C107.05,338.2,105.51,338.35,105.18,336.36Z"/><path class="cls-1" d="M120.87,360.2a8.36,8.36,0,0,1-5,5.7c-3.17,1.13-2.46-2.28-3.51-3.6s-1.43-3.11-2.59-4.15c-2.49-2.22-2-3.49.53-5.32,5.09-3.68,6.14-3.48,8.67,2.68C119.61,357,120.21,358.55,120.87,360.2Z"/><path class="cls-1" d="M182.41,366.2c-3.37,3.26-7.26.57-10.88,1a6.76,6.76,0,0,1,0-.9c2-2.89,3-7.11,8-6l1,1c.29.68.58,1.35.88,2Z"/><path class="cls-1" d="M140.46,334.2c.15-.06.38-.08.44-.19,2.47-4.33,5.14-6.43,8.54-.8l-.51,1.73a2.51,2.51,0,0,0-1.21,2.36c-2,.2-3.74,2.87-6,.7-.58-.6-1.16-1.19-1.73-1.79C140.13,335.53,140.3,334.86,140.46,334.2Z"/><path class="cls-1" d="M125.22,323.73a.89.89,0,0,0,.12.55c-.26,1.59,1,4.37-2.59,3.39-1.28-2.3-2.56-4.55-5-5.94-.94-.54-2.68-1.53-.26-2.63h.17C119.44,321.86,122.5,322.52,125.22,323.73Z"/><path class="cls-1" d="M119.75,347.62c.5-.41.82-.88,1.16-.89s.84.59.79.82a1.36,1.36,0,0,1-.87.89C120.59,348.5,120.21,348,119.75,347.62Z"/><path class="cls-1" d="M140,336.2c.57.6,1.15,1.19,1.73,1.79a5.6,5.6,0,0,1-2.21-.37C139,337.25,139.38,336.55,140,336.2Z"/><path class="cls-1" d="M147.72,337.29a2.51,2.51,0,0,1,1.21-2.36l.63,2.34Z"/><path class="cls-1" d="M88.24,358.42c-.1-2.52,1.36-5.42-1.71-7.24,3.19-7.41,5-7.87,11.09-2.92l2,3.95c-.29,1.31-.59,2.62-.88,3.94-2.22,3.26-5.18,4.84-9.19,4Z"/><path class="cls-1" d="M105.47,326.4c1.46,3.48,1.28,6.35-2.88,7.75l-2.07-.3c-.8-1.8-2.18-3.41-1.88-5.57a8.29,8.29,0,0,1,4.89-2Z"/><path class="cls-1" d="M103.53,326.2a8.29,8.29,0,0,0-4.89,2.05c-1.32-1.83,0-2.75,1.34-3.42a2.28,2.28,0,0,1,3.19.56A2.37,2.37,0,0,1,103.53,326.2Z"/><path class="cls-1" d="M64.08,261.63a2.22,2.22,0,0,1-2.27,2.14c-1.64,0-2.32-1.06-2.15-2.6a1.92,1.92,0,0,1,1.92-1.92,2,2,0,0,1,.42.05,2.19,2.19,0,0,1,2.08,2.31Z"/><path class="cls-1" d="M208.28,338.34c2.62,4.19,5.55,8.18,6.5,13.25.43,2.3.16,3.58-2.39,3.58-3.29,0-6.56.93-9.87.24-.05-3.42-1.92-6.44-2.66-9.71-.49-2.14-2.29-8.47-8.09-5-.12.07-.83-.84-1.27-1.29,2.25-.83,2.17-2.51.87-3.83-1.85-1.9-2,1.39-3.33,1.41-2.54-.44-4.67-2.32-7.47-2-1.12.14-2.38-.2-2.54-1.71-.12-1.2.74-1.8,1.71-2.07,5-1.4,2.95-3.68.79-6h0c2.41.42,3.74-.6,4-3l.86-1.27,1.94.55a5.45,5.45,0,0,0,1.38,3.58c.11,6.93,1.23,8,7.69,7.41l2.19-.26C201.63,334.58,203.81,338.28,208.28,338.34Z"/><path class="cls-1" d="M180.53,325.27c2.16,2.31,4.25,4.59-.79,6-1,.27-1.83.87-1.71,2.07.16,1.51,1.42,1.85,2.54,1.71,2.8-.34,4.93,1.54,7.47,2a1.78,1.78,0,0,0,.22,2.52l.22.16c3.24,3.54,4.64,8.25,7.69,12,1.64,2,2.17,5,2.85,7.67.43,1.64-.78,2.88-2.29,3.42-2.16.77-4.43.9-5.8-1.32-1.74-2.81-2.72-2.46-3.25,2.23-.9-3-1.28-4.44-1.75-5.82-.69-2,.69-4,.31-5.89-.53-2.74-3.59,1-4.36-1.55-.15-.47-.3-1-.44-1.42.62-1.17,1.31-2.3,1.86-3.49,1.24-2.66,2.49-4.93-2.52-4.92-4,0-5.87-3.67-6.78-7C173.16,330.62,177.2,326,180.53,325.27Z"/><path class="cls-1" d="M205.84,363.4c3.08-3.43,6.18-1.88,9.28,0,.24.51.48,1,.71,1.54-4,4.43-6.3,4.51-10.29.33Z"/><path class="cls-1" d="M188.48,339.71a1.8,1.8,0,0,1-.6-2.46A1.77,1.77,0,0,1,188,337c1.33,0,1.48-3.32,3.33-1.42,1.3,1.32,1.38,3-.87,3.83Z"/><path class="cls-1" d="M181.38,363.25l-.88-2C181.65,361.52,182.35,362,181.38,363.25Z"/><path class="cls-1" d="M215.83,364.89c-.23-.51-.47-1-.71-1.54-1.85-4.47.3-6,4.46-6.21a17.19,17.19,0,0,0,4.83-.69c1.77-.62,3.06-1.62,4.25,1,.92,2,3.25.28,4.9.69l3.3,2.93c.36,1.81.73,3.62,1.09,5.44-2.48,1.18-4.33.38-6-1.69-1.11-1.4-1.14-4.6-3.71-3.72s-6.07.7-7.32,4.18a7.17,7.17,0,0,1-1.52,1.86C217.85,367,217,365.71,215.83,364.89Z"/><path class="cls-1" d="M263,358.28a2.34,2.34,0,0,1,2.44-1.09l.18.14-.15-.18a2.54,2.54,0,0,1,1.48-3.27l.42-.12c.89,2.3,2.41,4.4,2.24,7-3.51,5.84-8.89,7.07-15.14,6.14l1.1-3.77,4.91-.09C264.24,363.11,264.89,361.89,263,358.28Z"/><path class="cls-1" d="M276.28,383.93c-.1,2-1.13,3.1-3,3.2-2.13.1-3.54-.89-3.44-3.14a3.17,3.17,0,0,1,3-3.3C275,380.53,276,382,276.28,383.93Z"/><path class="cls-1" d="M269.59,360.79c.17-2.63-1.35-4.73-2.24-7,1.07-3.24,1.6-6.79,5.18-8.5l1,.92c-.72,1.28-1.45,2.56-2.16,3.85-1.91,3.5-.85,6.55,2,8.8s5.67,2,8.58-.29c1.55-1.21,2.67-5.38,4.79-3,1.63,1.83-2.05,3.83-3.79,5.45a2.29,2.29,0,0,1-.41.28c-4,1.4-8.06-.13-12.09.07A1.94,1.94,0,0,1,269.59,360.79Z"/><path class="cls-1" d="M246.35,332.38c1.52-.18,3-.27,4,1.29,1.27,2.13,2.88,3.87,5.56,3.06s2.61-3.53,3.17-5.72c3.27,2.79.36,5.29-.37,7.9-5.4-.72-9.38,1.25-11.63,5.94-1.12,2.32-.5,4.19,1.95,5.28,1.22.55,2.69,1,1.86,2.79a3.15,3.15,0,0,1-3.14,1.87c-3.23.13-6.42.86-8.9-2.2-1-1.27-2.69-1.07-4.2-.84-.47-.75-1.71-1.46-.34-2.39a6.77,6.77,0,0,1,1.92-.53c8.15-2.31,8.15-2.31,8.46-10.75,1.44,0,2.94.43,4.53-.91C247.87,335.82,246.22,334.55,246.35,332.38Z"/><path class="cls-1" d="M258.66,338.91c.73-2.61,3.64-5.11.37-7.9-.24-1.26-.49-2.51-.74-3.76l.21-2.9a4.29,4.29,0,0,0,.24-1l3.74-.5c4.37,2.57,4.37,2.57,4.17,7.45l.27,1.72c-.21.41-.41.82-.62,1.24-3.05,3.84-2.61,5.1,3.16,9l-4.7,4.85L263.63,346Q261.16,342.48,258.66,338.91Z"/><path class="cls-1" d="M243.53,318.2c-2.19.8-2.23,3.08-3.26,4.69-.8,1.25-.46,3.92-2.75,3.35a7.12,7.12,0,0,1-4.1-3.26c-1-1.86,1.33-2.61,2.44-3.72,2-2,3.87-4,5.81-6l2.93.38C244.24,315.12,243.89,316.64,243.53,318.2Z"/><path class="cls-1" d="M273.51,346.2l-1-.92h0c3.5.32,6-1.37,8-4,2.43-1.7,3.38,0,4.62,1.77a3.93,3.93,0,0,1-.15,5c-1.45,2.11-3,.66-4.36,0A16.2,16.2,0,0,0,273.51,346.2Z"/><path class="cls-1" d="M266.65,330.33c.2-4.88.2-4.88-4.17-7.45,2.43-3.19,5.11-2.87,7.13.11C272,326.5,269.12,328.47,266.65,330.33Z"/><path class="cls-1" d="M266.3,333.29c.21-.42.41-.83.62-1.24,4.33.23,4.73,5.37,8.45,6.42-.93,1.91-2.59,2.16-4.12,2.61C270.73,337.77,266.2,337,266.3,333.29Z"/><path class="cls-1" d="M266.3,333.29c-.1,3.71,4.43,4.48,4.95,7.79l-1.79,1.25C263.69,338.39,263.25,337.13,266.3,333.29Z"/><path class="cls-1" d="M280.55,341.2c-2,2.63-4.52,4.32-8,4C273.55,340.6,277.21,341.2,280.55,341.2Z"/><path class="cls-1" d="M263,358.28c1.91,3.61,1.26,4.83-2.52,4.79Z"/><path class="cls-1" d="M258.5,324.35l-.21,2.9c-3-.21-2.21-2.05-1.61-3.8l.71-.07Z"/><path class="cls-1" d="M269.47,307.2l.18-2.15C271.14,305.93,271.34,306.67,269.47,307.2Z"/><path class="cls-1" d="M262.48,311.2a2.78,2.78,0,0,1,2.19,1.84A2.09,2.09,0,0,1,262.48,311.2Z"/><path class="cls-1" d="M263.63,346l1.13,1.14c-.28.31-.72.91-.79.87C263.1,347.54,263.48,346.76,263.63,346Z"/><path class="cls-1" d="M258.5,324.35l-1.11-1h1.35A4.29,4.29,0,0,1,258.5,324.35Z"/><path class="cls-1" d="M198.26,278.2c-.22,1.47-.5,2.92-.65,4.39-.19,1.76-2.36,3.89.46,5.16,3,1.34,2.86-1.79,3.86-3.17s1.41-3,3.08-3.73a4.54,4.54,0,0,1,2.4,2.34c-.18,2.34-2,4.31-1.5,6.81.12.63,0,1.44.38,1.86,3.05,3.55,1,4.34-2.35,4.45-.8,0-1.62-.06-2.43-.09-1.44.35-2.19-2.38-3.74-.93a3.28,3.28,0,0,0-1,2.58c.46,1.9,2.42,1,3.66,1.46-.06,2.23.22,4.87-2,6.05-1.56.85-2.46-1.69-3.95-2.18-.05-.61-.1-1.21-.14-1.82.07-1.27-.73-1.86-1.76-2.28l.51-2.82c2.07-4.89-1.66-6.78-4.68-9-.1-.26-.19-.53-.27-.79a8.71,8.71,0,0,0,.49-1.41C189.56,279.48,192.28,276.56,198.26,278.2Z"/><path class="cls-1" d="M201.51,296.2c.81,0,1.63.11,2.43.09,3.37-.11,5.4-.9,2.35-4.45-.36-.42-.26-1.23-.38-1.86,2.44,1.47,4.91,1.22,7.38.06l.31.32c-1.87,2.71-2.15,5.22.43,7.82,1.09,1.09,1.55,2.82,2.29,4.25-5,0-10.23-1.66-14,3.84-1.13,1.63-4.38,2.56-6.87,1.09-1.58-.93-2.32-2.42-.87-4.18,1.49.49,2.39,3,3.95,2.18,2.17-1.18,1.89-3.82,1.95-6.05a2.12,2.12,0,0,1,.81-.32c.68,0,1.44.05,1.54-.79,0-.3-.57-.66-.87-1Z"/><path class="cls-1" d="M216.32,302.42c-.74-1.43-1.2-3.16-2.29-4.25-2.58-2.6-2.3-5.11-.43-7.82.05,0,6.8,8.62,6.82,8.66a4.25,4.25,0,0,0,3.12,2.24l1,1.92a11.23,11.23,0,0,0-1,3.16c.16,4-1.91,2.62-3.84,1.72Z"/><path class="cls-1" d="M153.64,312c-1.23-.37-3.16-.51-3.28-1.7-.43-4.18-3.53-2.8-5.81-3.16-.27-.59-.53-1.18-.79-1.77l4.71-1.33c-3.79-2-1.61-4.67-1.91-7.55,2.16.9,4,2.17,6.1,1.42.09.33.18.66.26,1-.12,1.32-.17,2.66-.38,4-.66,4.11.37,6.28,5,4.54C157.9,310.36,154.23,309.88,153.64,312Z"/><path class="cls-1" d="M178.48,303.2c3-1.06,5.74-2.4,5.71,3,0,2.56,3.41,5.48,1.52,7.67-1.48,1.71-5,1.7-7.65,2.33a28.4,28.4,0,0,1-3.9.45c.08-1.47.15-2.95.23-4.43l1-.28c2.83,1.61,4.78.33,6-2.13,1.08-2.11.62-3.86-2-4.42Z"/><path class="cls-1" d="M172.6,317.29c-1.94,3.22-1.76,7.34-7.39,8.5s-7.48-.71-8.93-5.11a8.38,8.38,0,0,0-1-1.68c.09-.67.18-1.33.26-2l4,.39c3.14,6.79,5.26,7.17,9.8,1.58A3.58,3.58,0,0,1,172.6,317.29Z"/><path class="cls-1" d="M159.52,317.39l-4-.39c-.09-1.8.46-3.84-1.84-4.8l-.07-.19c.59-2.13,4.26-1.65,3.89-4.59l1-.61h2.42c.77,1.4,2.19,1.53,3.54,1.81.32.54.63,1.08.95,1.61-2.5,1.72-5.09,3.38-5.1,6.93A4.22,4.22,0,0,1,159.52,317.39Z"/><path class="cls-1" d="M159.52,317.39c.27-.06.54-.12.8-.2,5.29,1.2,8.88-1.78,12.37-5l1.7.06c-.08,1.48-.15,3-.23,4.43l-1.56.61a3.58,3.58,0,0,0-3.28,1.68C164.78,324.56,162.66,324.2,159.52,317.39Z"/><path class="cls-1" d="M198.59,332.25l-2.19.26v-5.1c3.46-2.12,7.4-.8,11.09-1.46,1.49-.26,2.63,1.22,2.13,3.09-.37,1.41-.79,2.82-1.2,4.22l-.34.31C205.05,332.39,202.61,326.58,198.59,332.25Z"/><path class="cls-1" d="M165.42,310.26c-.32-.53-.63-1.07-.95-1.61.09-.7.19-1.4.28-2.09a36.85,36.85,0,0,0,4.87-4.12c3.75-4.41,4.67-4.43,8,.47-4.74-1.47-5.45,1.84-6.14,5.18Z"/><path class="cls-1" d="M171.52,308.09c.69-3.34,1.4-6.65,6.14-5.18a6.26,6.26,0,0,0,.82.31l.93,2.2c-1.11,2.32-4.43,3.29-4,6.55l-1,.28-1.7-.06Z"/><path class="cls-1" d="M196.44,327.41v5.1c-6.46.6-7.58-.48-7.69-7.41Z"/><path class="cls-1" d="M158.51,306.81l-1,.61c-4.62,1.74-5.65-.43-5-4.54.21-1.31.26-2.65.38-4C157.79,299.42,158.91,302.58,158.51,306.81Z"/><path class="cls-1" d="M188.48,287.2c3,2.25,6.75,4.14,4.68,9C187.94,295.14,188.82,290.86,188.48,287.2Z"/><path class="cls-1" d="M153.71,312.2c2.3,1,1.75,3,1.84,4.8-.08.67-.17,1.33-.26,2l-1.73.16Z"/><path class="cls-1" d="M184.53,322.2c-.25,2.42-1.58,3.44-4,3C180.83,322.88,182.39,322.2,184.53,322.2Z"/><path class="cls-1" d="M164.75,306.56c-.09.69-.19,1.39-.28,2.09-1.35-.28-2.77-.41-3.54-1.81Z"/><path class="cls-1" d="M187.33,321.52l-1.94-.55c.18-.61.57-1.2,1.21-.86C187,320.31,187.09,321,187.33,321.52Z"/><path class="cls-1" d="M192.65,299.07c1,.42,1.83,1,1.76,2.28A2.43,2.43,0,0,1,192.65,299.07Z"/><path class="cls-1" d="M224.52,303.2l-1-1.92a27.35,27.35,0,0,0-.11-3c-.72-7.43-.72-7.41,6.53-8.47a5,5,0,0,0,1.82-.7c5.21-3.12,11,.17,11.42,6.41a3.18,3.18,0,0,1-1.83,3.22c-3.48,2-5.18,4.56-4.46,9,.55,3.36-2.61,4.81-5.36,5.35-3.37.66-3.57-1.57-3.37-4.33C228.36,306.2,226.57,304.48,224.52,303.2Z"/><path class="cls-1" d="M234.65,343.67c-5.45-.13-3.78-4.75-4.77-7.65-.88-2.57.32-4.49,2.4-5.88,2.69-1.79,4.92-.57,7.13,1.17a9.41,9.41,0,0,0,2.71,1c0,.63-.07,1.25-.11,1.87-1.8,1.28-1.52,3.19-1.52,5q-1.06,2-2.11,3.93Z"/><path class="cls-1" d="M198.59,332.25c4-5.67,6.46.14,9.53,1.32,0,1.59.11,3.18.16,4.77C203.81,338.28,201.63,334.58,198.59,332.25Z"/><path class="cls-1" d="M213.29,290c-2.47,1.16-4.94,1.41-7.38-.06-.53-2.5,1.32-4.47,1.5-6.81C211.4,283.71,213.67,285.74,213.29,290Z"/><path class="cls-1" d="M242,334.2c0-.62.08-1.24.11-1.87.76-1,2.32-1.34,2.67-2.88a2.93,2.93,0,0,0,1.56,3c-.13,2.17,1.52,3.44,2.82,4.79-1.59,1.34-3.09.89-4.53.91l-2-.24C243,336.52,244.41,335,242,334.2Z"/><path class="cls-1" d="M234.65,343.67l3.73-.56c1.61.6,2.86,1.84,1.37,3.22a5.66,5.66,0,0,1-6.46.52C231.28,345.59,234.24,344.82,234.65,343.67Z"/><path class="cls-1" d="M208.86,271.2l2.45.17a18.09,18.09,0,0,1-2.34,7.71C207.77,275.48,209,273.32,208.86,271.2Z"/><path class="cls-1" d="M242,334.2c2.4.84,1,2.36.65,3.68l-2.16,1.32C240.49,337.35,240.21,335.44,242,334.2Z"/><path class="cls-1" d="M200.33,264.35c-.23-.35-.78-.66-.14-1.12l.56.78Z"/><path class="cls-1" d="M141.34,283.1a1.76,1.76,0,0,0,.37-.56c4.28.1,5.59-4.94,9.83-5.61.52,2.21-4.46,6,1.51,6.67.14,0,.31.92.25,1.38-.48,3.43-4.4,2.17-6,4.39-1,1.4-2.29,0-3-1.25a2.81,2.81,0,0,0-2.5-2.11Z"/><path class="cls-1" d="M143.76,305.38c.26.59.52,1.18.79,1.77-.16,2.47-.91,4.48-3.8,4.79a4,4,0,0,0-3-2,3.82,3.82,0,0,1-.19-1.46c.48-1.65-2.28-3.61,0-4.79S142.14,303.2,143.76,305.38Z"/><path class="cls-1" d="M154.13,264.06c1.51,1.46,2.45,2.52,1.32,4.07-.14.2-.68.36-.83.25C153.12,267.35,153.55,266,154.13,264.06Z"/><path class="cls-1" d="M125.22,323.73c-2.72-1.21-5.78-1.87-7.55-4.63C122,317.64,123.65,320.65,125.22,323.73Z"/><path class="cls-1" d="M137.33,325.35c1.95,1.21,2.82,2.48.18,3.91Z"/><path class="cls-1" d="M141.34,283.1l.45,2.91c-2.49-.05-6.5,2.77-7,.18C134.22,283.37,138.89,283.9,141.34,283.1Z"/><polygon class="cls-1" points="265.45 357.15 265.6 357.33 265.42 357.19 265.45 357.15"/><path class="cls-1" d="M201.51,296.2c.14.34.28.67.41,1l-.66,1.79a2.12,2.12,0,0,0-.81.32c-1.24-.51-3.2.44-3.66-1.46a3.28,3.28,0,0,1,1-2.58C199.32,293.81,200.07,296.54,201.51,296.2Z"/><path class="cls-1" d="M201.26,299l.66-1.79c.31.34.91.7.88,1C202.7,299,201.94,299,201.26,299Z"/><path class="cls-1" d="M175.4,312c-.42-3.26,2.9-4.23,4-6.55,2.66.56,3.12,2.31,2,4.42C180.18,312.3,178.23,313.58,175.4,312Z"/><path class="cls-1" d="M171.52,308.09l1.17,4.1c-3.49,3.22-7.08,6.2-12.37,5,0-3.55,2.6-5.21,5.1-6.93Z"/></svg>