<svg id="Layer_1" data-name="Layer 1" xmlns="http://www.w3.org/2000/svg" viewBox="0 0 400 400"><defs><style>.cls-1{fill:#fff;}</style></defs><title>cubed</title><path class="cls-1" d="M234,207.18c4.46-2.16,8.28-4,12.09-5.85,11.66-5.71,23.36-5.82,35-.17,13.4,6.46,26.84,12.86,40.11,19.57,11.07,5.6,17.08,14.81,17.21,27.3q.3,27.42,0,54.86c-.11,11.7-5.42,20.87-15.73,26.26-14.53,7.59-29.28,14.86-44.23,21.6-10.27,4.63-21,4.12-31.18-.77-9.55-4.55-19-9.27-28.49-14-2.88-1.44-4.11-1.61-4.06,2.39.1,7.46,1,15-2.35,22.22-3.18,6.79-7.72,12.11-14.5,15.42-13.78,6.75-27.51,13.6-41.37,20.14-11.06,5.22-22.29,5.06-33.33-.21-13.16-6.31-26.21-12.8-39.32-19.15-12.45-6-18.59-15.86-18.55-29.73.11-17.37,0-34.73,0-52.09,0-12.88,5.85-22.37,17.42-28,2.92-1.43,4-2.82,2.68-5.9-1.06-2.46-.84-5.12-.84-7.73,0-18-.12-36,0-53.94.1-12.47,5.79-21.71,17-27.31,13.17-6.58,26.41-13.05,39.61-19.56,11.61-5.74,23.3-6.08,35-.42q20.1,9.75,40.14,19.65c11.75,5.81,17.46,15.44,17.59,28.46C234,202.31,234,204.41,234,207.18Zm34.12,102.07v27.19c0,7.66,2.06,9,8.78,5.74,13.64-6.64,27.3-13.27,40.88-20.06,8-4,12.1-10.77,12.18-19.62.18-18,.09-35.94.05-53.94,0-7.24-2.3-8.71-8.68-5.62-13.8,6.67-27.63,13.28-41.3,20.23-7.74,3.93-11.8,10.58-11.87,19.33C268.07,291.42,268.15,300.34,268.15,309.25ZM135.71,355.78v-27.2c0-8.84-4.16-15.36-11.88-19.28-13.66-6.95-27.49-13.58-41.3-20.28-6.13-3-8.57-1.45-8.59,5.37,0,18.12-.13,36.24,0,54.38.08,8.67,4.08,15.45,11.85,19.38,14,7.06,28.06,13.83,42.15,20.6,5.57,2.68,7.66,1.31,7.7-4.84C135.75,374.52,135.71,365.15,135.71,355.78Zm70.64-34.06h-.08c0-9.22.06-18.44,0-27.65-.06-6.52-2.46-8-8.43-5.1-13.79,6.69-27.6,13.36-41.3,20.23-7.58,3.81-11.93,10.28-12,18.77-.27,18.54-.14,37.17-.06,55.77,0,6.34,2.32,7.68,8.14,4.86,13.81-6.68,27.62-13.35,41.3-20.18,8.18-4.06,12.26-10.95,12.4-20C206.41,339.54,206.35,330.63,206.35,321.72Zm53.1-12.15c0-9.23.06-18.45,0-27.67-.09-8.27-4-14.65-11.14-18.34-14.17-7.32-28.6-14.16-43-21.08-4.93-2.37-7.36-.93-7.59,4.47s.07,11.08-.12,16.6c-.08,2.53.9,3.73,2.95,5.05,9.27,6,14.14,14.71,14.26,25.84.11,8.91.06,17.83,0,26.74,0,2.13.22,3.63,2.53,4.73,11.51,5.45,22.88,11.18,34.37,16.68,5.66,2.7,7.66,1.38,7.71-4.91.05-9.36,0-18.74,0-28.11Zm4.36-51.42c3.85-.11,7.71-.46,11.22-2.16q21.72-10.5,43.36-21.18c1.34-.66,3.32-1.23,3.37-2.81.07-1.92-2.06-2.47-3.52-3.19-14.16-7-28.23-14.12-42.53-20.76a27.57,27.57,0,0,0-24.08.17c-14.11,6.74-28.1,13.7-42.15,20.58-1.47.74-3.65,1.31-3.58,3.13s2.23,2.33,3.71,3q21.07,10.34,42.14,20.61a28.82,28.82,0,0,0,12.05,2.58ZM158.59,156.77a24.26,24.26,0,0,0-11,2.36Q126.27,169.5,105,180c-1.43.71-3.68,1.15-3.55,3.15.14,1.83,2.28,2.33,3.75,3,13.49,6.63,27,13.19,40.52,19.83,9.19,4.51,18.31,4.4,27.45-.11,13.21-6.52,26.44-13,39.62-19.48,1.68-.84,4.34-1.27,4.29-3.52-.06-1.87-2.48-2.47-4.12-3.28-13.64-6.67-27.3-13.29-40.92-20A28.61,28.61,0,0,0,158.59,156.77Zm-18.3,95.11A26.28,26.28,0,0,0,126.54,255q-20.24,9.9-40.42,19.89c-1.61.84-4,1.3-3.86,3.37.09,1.68,2.31,2.27,3.8,3q20.41,10,40.87,20a28.75,28.75,0,0,0,26.17.1c13.82-6.62,27.55-13.41,41.3-20.23,1.45-.71,3.65-1.23,3.68-3.07s-2.18-2.35-3.65-3.07Q174,264.9,153.6,254.88A26.29,26.29,0,0,0,140.29,251.88Zm14.7-5.83c0-4.53.06-8.48,0-12.42-.15-8.56-3.92-15.17-11.49-19.07-14.06-7.16-28.31-14-42.53-20.81-5.36-2.53-7.78-1-7.8,5q-.08,27.88,0,55.74c0,6.7.59,7,6.54,4.08,5-2.42,10.05-4.61,14.84-7.31,12.64-7.12,25.66-10.94,40.44-5.21Zm34.14,16.72c0-5.6-.18-10.47,0-15.31.5-11.46,5.76-20.16,15.71-25.89,3-1.75,6.15-3.71,9.5-4.58,9.88-2.6,12.36-9,11.06-18.39-.85-6-2.35-7.5-7.93-4.81q-21.12,10.13-42.14,20.59c-7.47,3.75-11.29,10.22-11.8,18.46-.3,4.9,0,9.82-.08,14.73,0,1.42,0,2.73,1.57,3.49,7.87,3.77,15.67,7.59,24.11,11.71Z"/></svg>