<svg id="Layer_1" data-name="Layer 1" xmlns="http://www.w3.org/2000/svg" viewBox="0 0 200 200"><defs><style>.cls-1{fill:#fefefe;}.cls-2{fill:#0a0b0b;}</style></defs><title>edit</title><path class="cls-1" d="M12.3,101.79A88.87,88.87,0,0,1,95.91,10.27c48.28-3.07,90.71,34.39,93.84,82.59,3.24,50-34.14,92.11-84.94,94.73C56.81,190.06,14.32,152.82,12.3,101.79Z"/><path class="cls-2" d="M120.66,87.75C117,84.27,113.38,80.74,110,77c-1.64-1.78-2.5-1.52-4.08.07C94.15,89,82.44,100.92,70.39,112.49c-3.59,3.45-5.18,6.86-4.91,11.82.41,7.47.11,7.49,7.92,7.49,2.33-.69,5.47,1.23,8.07-1.4Q101,110.69,120.75,91.13C122.15,89.74,122,89,120.66,87.75Zm-12.46,5-29.06,29a9.44,9.44,0,0,0-1,1c-1.17,1.58-3.2,2.29-4.34,1.16-1.31-1.29-.57-3.24.92-4.72q12.94-12.8,25.76-25.72c2.46-2.46,4.85-5,7.26-7.49,3.78,3.39,3.78,3.39.46,6.72Z"/><path class="cls-2" d="M134.54,76c.11,1.91-1.7,3-3,4.32-5.08,5.15-5.1,5.13-10.19,0-2.47-2.46-4.88-5-7.42-7.37-1.35-1.27-1.83-2-.2-3.65,8.46-8.33,7.46-8.92,16-.19C134.38,73.83,134.52,73.93,134.54,76Z"/></svg>