<?xml version="1.0" encoding="utf-8"?>
<!-- Generator: Adobe Illustrator 24.0.0, SVG Export Plug-In . SVG Version: 6.00 Build 0)  -->
<svg version="1.1" id="Layer_1" xmlns="http://www.w3.org/2000/svg" xmlns:xlink="http://www.w3.org/1999/xlink" x="0px" y="0px"
	 viewBox="0 0 200 200" style="enable-background:new 0 0 200 200;" xml:space="preserve">
<style type="text/css">
	.st0{fill:#FFFFFF;}
</style>
<title>image</title>
<path class="st0" d="M96,144.3c-10.4,0-20.8-0.1-31.1,0c-5.1,0-9.2-4.1-9.2-9.2c0,0,0,0,0,0c0.1-20.8,0-41.6,0-62.5
	c-0.1-4.9,3.7-8.9,8.6-9c0.1,0,0.2,0,0.4,0c13.2,0,26.3,0,39.5,0c0.9,0,0.9,0.3,0.9,1c0,2.3-0.1,4.5,0,6.8c0,0.9-0.3,1.2-1.2,1.1
	c-12.6,0-25.3,0-37.9,0c-0.9,0-1.3,0.1-1.3,1.2c0,20.1,0,40.2,0,60.3c0,0.9,0.2,1.2,1.2,1.2c20.2,0,40.3,0,60.5,0
	c1,0,1.2-0.3,1.2-1.2c0-12.6,0-25.3-0.1-37.9c0-1,0.3-1.3,1.3-1.3c2.3,0.1,4.5,0.1,6.8,0c0.8,0,0.9,0.2,0.9,0.9
	c0,13.3,0,26.5,0,39.8c-0.1,4.8-4,8.6-8.8,8.6C117.1,144.3,106.6,144.3,96,144.3z"/>
<path class="st0" d="M127.5,56.9c0-2,0-3.9,0-5.9c0-0.7,0.2-0.9,0.9-0.8c2.4,0,4.8,0.1,7.2,0c0.8,0,0.9,0.3,0.9,1
	c0,3.8,0,7.7,0,11.5c0,0.8,0.2,1,1.1,1c3.8,0,7.6,0,11.4,0c0.8,0,1.1,0.2,1,1c-0.1,2.3-0.1,4.7,0,6.9c0,0.8-0.2,1.1-1,1
	c-3.7,0-7.5,0-11.3,0c-0.9,0-1.2,0.2-1.2,1.1c0.1,3.7,0,7.5,0,11.3c0,0.8-0.1,1.1-1,1.1c-2.3-0.1-4.7-0.1-6.9,0
	c-0.9,0-1.1-0.3-1.1-1.1c0-3.7,0-7.5,0-11.3c0-0.9-0.2-1.1-1.1-1.1c-3.7,0.1-7.5,0-11.3,0.1c-0.9,0-1.2-0.3-1.1-1.2
	c0.1-2.3,0.1-4.6,0-6.9c0-0.8,0.3-0.9,0.9-0.9c3.8,0,7.6,0,11.4,0c0.9,0,1.2-0.3,1.1-1.2C127.4,60.7,127.5,58.8,127.5,56.9z"/>
<path class="st0" d="M104.8,105.4l15.8,21H71.5l4.1-5.3c2.5-3.3,5.1-6.5,7.6-9.8c0.5-0.6,0.7-0.6,1.2,0c2.5,3.1,5.1,6.1,7.5,9.1
	c0.6,0.7,0.8,0.6,1.3,0c3.6-4.7,7.2-9.3,10.8-14C104.3,106.1,104.5,105.8,104.8,105.4z"/>
</svg>
