<?xml version="1.0" encoding="utf-8"?>
<!-- Generator: Adobe Illustrator 23.0.6, SVG Export Plug-In . SVG Version: 6.00 Build 0)  -->
<svg version="1.1" id="Layer_1" xmlns="http://www.w3.org/2000/svg" xmlns:xlink="http://www.w3.org/1999/xlink" x="0px" y="0px"
	 viewBox="0 0 200 165" style="enable-background:new 0 0 200 165;" xml:space="preserve">
<style type="text/css">
	.st0{fill:#ECECED;}
	.st1{fill:#FFFFFF;}
</style>
<g>
	<path class="st1" d="M35.6,125.6c0.1-0.1,0.2-0.2,0.4-0.4c0.5-0.2,0.8-0.6,1.1-1.1c0.5-0.3,0.8-0.6,1.1-1.1
		c0.5-0.2,0.8-0.6,1.1-1.1c0.6-0.4,1.1-0.8,1.4-1.4c0.6-0.4,1.1-0.8,1.4-1.4c8.1-8.1,16.2-16.2,24.4-24.3c1.5-1.5,3-2.9,4.4-4.4
		c0.8-0.9,1.3-0.8,2.1,0c6.4,6.4,12.9,12.8,19.3,19.2c4.8,4.8,11.7,4.8,16.5,0c6.4-6.4,12.8-12.7,19.1-19.1c1-1,1.5-0.8,2.3,0.1
		c15.3,15.4,30.7,30.8,46,46.1c0.4,0.4,0.8,0.7,1.2,1.1c0.1,0.1,0.2,0.2,0.3,0.3c0.3,0.5,0.7,0.9,1.1,1.1c1,1.1,2,2.1,3.1,3.4
		c-54.4,0-108.6,0-163,0C24.6,136.9,30.1,131.3,35.6,125.6z"/>
	<path class="st1" d="M14.2,123.1c0-0.7,0.1-1.4,0.1-2.1c0-28.8,0-57.5,0-86.3c0-0.6,0-1.3,0-2.4c2,2.1,3.7,3.9,5.5,5.6
		c15.5,15.5,30.9,31,46.5,46.4c1,1,1,1.5,0,2.4c-9.6,9.5-19.1,19-28.6,28.5c-0.5,0.5-0.8,1-1.3,1.5c0,0,0,0,0,0
		c-1.9,1.6-3.6,3.4-5.3,5.2c-3.7,3.7-7.4,7.3-11.1,11.1c-1.8,1.8-3.4,3.7-5.2,5.6c-0.2-0.1-0.4-0.2-0.6-0.4
		C14.2,133.2,14.2,128.1,14.2,123.1z"/>
	<path class="st1" d="M179.2,132c-5.1-5.3-10.5-10.5-15.7-15.7c-4.4-4.4-8.8-8.8-13.1-13.2c-5.5-5.6-11.1-11.1-16.6-16.6
		c-0.6-0.6-1-0.9-0.2-1.8c17.4-17.3,34.7-34.6,52.1-52c0.4,0.6,0.2,1.3,0.2,1.8c0,28.1,0,56.1,0,84.2c0,0.7,0,1.3,0.1,2
		c0,5.8,0,11.7,0,18C183.5,136.2,181.4,134.1,179.2,132z"/>
	<path class="st1" d="M19.2,28.9c54.2,0,108.3,0,162.5,0c-0.1,0.6-0.5,0.8-0.8,1.2c-16.5,16.5-33.1,33.1-49.6,49.6
		c-8.7,8.7-17.4,17.3-26.1,26c-3.1,3.1-6.3,3.1-9.4,0c-9.4-9.4-18.9-18.9-28.3-28.3c-15.7-15.7-31.4-31.3-47.2-47
		c-0.4-0.4-0.9-0.7-1.4-1C18.9,29.1,19,29,19.2,28.9z"/>
</g>
</svg>
