<svg id="Layer_1" data-name="Layer 1" xmlns="http://www.w3.org/2000/svg" viewBox="0 0 400 400"><defs><style>.cls-1{fill:#fff;}</style></defs><title>shaken</title><path class="cls-1" d="M133.3,395.28c-9,6.82-15.46,3.37-24.71-5.85q-15.75-15.74-31.46-31.5Q66.75,347.52,56.48,337c-.41-.41-.4-1.23-.59-1.86.22-1.91-1.31-2.58-2.49-3.5a20.07,20.07,0,0,0,0-7c1-1.81,3.17-3,2.61-5.53,5.81-8.65,10.53-18,16.9-26.31,7-9.22,13.12-19.17,19.88-28.61,6.19-8.65,13-16.85,19-25.66,3-4.37,7.44-7.51,9.43-12.54,2.3-1.44,4.72-2.77,5.1-5.88,7-7.94,14.05-15.84,21-23.84,3.88-4.46,7.42-9.7,11.54-13.38,5.64-5,9.7-11.53,16.1-15.94,4.55-3.14,8.11-8,12.2-12,2-2,1.78-6.24,4.15-8.92,3.14-3.54,7.19-5.7,11.5-4.59,7.95,2,13.68-2,19.44-5.89,9.76-6.67,20.13-8.4,31.24-4.46,6.57,2.33,12.74.14,19.15-5.54,6.86-6.08,14.12-12,22.07-16.47,6.13-3.43,12.93-.2,18.9,2.91,11.52,6,20.07,15.12,27,26,5.72,9,5.65,16.53-.79,24.86-5.86,7.57-12.08,14.9-17.44,22.81-3.39,5-2,11.43-.26,16.46,3.79,10.87-.06,19.74-5.71,28.1-3.55,5.24-6,10.33-5.32,16.68,1.21,10.64-3.25,14.68-12.32,17.67-4.42,1.46-7.21,5.83-10.26,9.1-9.76,10.46-20.32,20-30.68,29.84a281.75,281.75,0,0,1-22.35,19.21c-9.57,7.35-18.07,16-28.2,22.64-2.22,1.18-4.5,2.28-5.42,4.89l-.31-.12-.18.27c-1.7-.25-3.33-.32-4.11,1.69-3,3.79-7.59,5.81-11,9.19a12.23,12.23,0,0,0-6.17,4.75l-.45-.13-.39.26c-2,1.67-5.46,1.52-6.05,4.91-5.58,2.06-9.86,6.2-14.79,9.29-6.13,3.83-12.11,7.9-18.15,11.86A23.41,23.41,0,0,1,133.3,395.28ZM113.76,379a2.21,2.21,0,0,0,2.18,2.23l.27,0h0c1.3,4.09,4.91,5.6,8.29,7.28,1.44.71,1.73-1.14,2.65-1.66a1.6,1.6,0,0,0,2.1-.55c2.16.88,1.93-1.41,2.85-2.16.66,0,1.55.18,1.92-.16,6-5.42,13.18-9.25,19.66-13.91,6.78-4.87,14-9.47,21.1-14.07,12.06-7.8,22.83-17.27,34.47-25.6,7.34-5.26,14.06-11.4,21.05-17.15l2.1-2h-.07c2.48-1,5.08-2,5.67-5.09,6.91-4.39,12.53-10.25,18.28-16a2.27,2.27,0,0,0,2.48-2.06.37.37,0,0,0,0-.11h.33l.06-.33c1.71.08,2.22-1,2.29-2.44l-.07.06a15.84,15.84,0,0,0,8.14-8l-.08.08c1.61,0,2.75-.41,2.59-2.33l.16-.16c1.87.15,2.4-.94,2.38-2.55l-.09.08a15.13,15.13,0,0,0,8-8.15l-.07.08c6.84-4.46,5.65-4.59-.13-9.94-9.64-9.72-19.1-19.62-28.95-29.12C242,214.4,231,203.25,220,192.09c-8.13-8.26-16.59-16.19-24.77-24.4-1.82-1.82-2.4-2.28-4.87-.2-11,9.28-20.47,20.06-30.15,30.6-1.74,1.9-4.81,2.9-5,6.12-1.1.84-3.2.77-2.74,3l-.18.22c-1.82,0-2.27,1.07-2.24,2.61V210c-1.94.14-3,1.1-2.89,3.13-4.81,5.37-9.24,11.13-14.07,16.38-10.14,11-18.47,23.31-27.37,35.18C94.18,280.06,83.37,296,72.72,312c-1.35,2-4.23,3.84-3.56,7.08-2,.08-2.63,1.21-2.4,3.05l-.57,2c-1.46-.11-1.86.67-2,2-.42,3.63,3.37,8.95,8,11h0a2.19,2.19,0,0,0,1.94,2.42h.26v.36h.35a2.19,2.19,0,0,0,2.19,2.21h.24c.24,3.18,3.15,3.89,5.08,5.5l2.75,2.6c.3,1.28.86,2.32,2.38,2.4V353h.34a2.21,2.21,0,0,0,2.18,2.23l.26,0h0c.25,3.18,3.12,3.92,5.09,5.5L98,363.23c.29,1.29.85,2.33,2.37,2.4l0,.34h.33a2.21,2.21,0,0,0,2.18,2.23l.27,0h0c.24,3.18,3.1,3.94,5.09,5.5l2.74,2.56c.29,1.29.85,2.33,2.37,2.4l0,.34ZM244.92,140c-9.53-.59-14.92,2.92-20.3,7-5,3.85-5.74,7-.38,10.26,7.59,4.58,12,12.19,18.6,17.79s11.94,12.62,18.44,18.4a105.88,105.88,0,0,1,9.86,10.67c3,3.52,7.26,5.95,10.62,9.21,6,5.83,11.74,11.93,17.59,17.92,1.65,1.69,2.95,4.1,4.35-.54a13.8,13.8,0,0,1,3.48-5.5,19.07,19.07,0,0,0,5.4-15.14,72.55,72.55,0,0,0-1.9-13.2c-1.26-4.54.57-9.44-4.12-13.73-11.25-10.29-21.35-21.83-32.31-32.45-2.94-2.86-5.19-7.94-9.23-8.08a104.66,104.66,0,0,1-20.1-2.58Zm57.16-21.19c-2.09,0-3.62.16-5.26,1.54-5.75,4.8-11.7,9.38-17.77,13.78-3.38,2.46-2.47,4.64-.25,7,1.75,1.87,4.08,3.19,5.85,4.91,9.2,8.94,18.41,17.93,26.9,27.53,3.59,4.06,5.17,2.05,7.24-.54,4.78-6,9.27-12.24,14.16-18.13,1.94-2.33,1.65-4.66.81-6.84-2-5.16-5.89-9.19-9-13.68-4.27-6.21-11.13-9.44-16.92-13.9-1.91-1.44-3.93-1.45-5.76-1.64ZM199,154.15c.64,1.24.23,2.51,1.6,3.82,9.63,9.26,19,18.83,28.43,28.27,8.72,8.71,17.36,17.5,26.24,26,7.75,7.43,15.34,15,22.88,22.64,5.73,5.77,12,11.06,17.12,17.46a3.83,3.83,0,0,0,3.06,1.7c1.87.22,1.87-1.1,2.54-2.26,1.43-2.48-.07-4-1.46-5.42-12.51-12.49-25.24-24.77-37.64-37.36-18.84-19.11-37.67-38.22-56.88-57-1.46-1.42-2.44-1.81-4-1.53C198.82,150.92,199.63,152.94,199,154.15Z"/><path class="cls-1" d="M173.26,111.14c4.83-1.08,8.55-4.53,13.32-6,6.61-2,13.07-4.35,20.1-4.31,3.19,0,5.71.84,5.61,4.67-.1,3.54-2.23,5.24-5.57,5.66-16.24,2-30.37,8.63-40.55,21.43-3.74,4.7-8.09,9.74-9,16.6-.62,4.68-5,6-9.75,3.92-.11-2.67-.22-5.33-.32-8,4.78-11,10.91-21.11,20.16-29C169.12,114.29,172.56,114.37,173.26,111.14Z"/><path class="cls-1" d="M235.33,363.36l-4.06.24c-2,.18-3.93.25-5.87.56-3.39.54-6.15-.25-8.06-3.27v-2.56a6.51,6.51,0,0,0,2.7-3.2c5.27-3.06,11.56-1.56,17.18-4.22,4.4-2.09,8.24-4.74,12.35-7.05A46.87,46.87,0,0,0,263,332.09a46.09,46.09,0,0,0,9.11-17.4c.87-3.25,3.4-5.11,6-4.87a4.87,4.87,0,0,1,4.67,5.06,4.58,4.58,0,0,1-.17,1.1,45.06,45.06,0,0,1-7.06,16.62c-2.86,4.38-6.09,8.37-9.3,12.43-3.75,4.66-8.93,7.66-13.95,10.66-3.5,2.1-7.41,3.51-11.13,5.22C238.86,360.87,237.06,362,235.33,363.36Z"/><path class="cls-1" d="M293.53,343.36c-.09,6.37-4.1,10.33-7.19,14.33-7,9.09-16.28,15.74-26.71,20.61-2.32,1.08-4.89,1.59-7.29,2.63a5.44,5.44,0,0,1-7.34-2.3,5.57,5.57,0,0,1-.48-1.31c-1.25-4.25,2.31-6.88,5.57-7.57,6.11-1.28,11.24-4.37,16.18-7.6a48.25,48.25,0,0,0,16.26-17.93c1.6-3,3.4-5.4,7.54-4.65C292.85,340.08,293.29,341.85,293.53,343.36Z"/><path class="cls-1" d="M167.76,101l-1.51.18c-1.64,0-2.11,1.74-3.44,2.19l-.28.31a2.83,2.83,0,0,0-1.53,2.39c-5.66.87-7.71,5.89-10.66,9.68a35.15,35.15,0,0,0-3.52,5.14c-1.4,2.69-3.89,5.46-7.83,3.47-2.61-1.32-3.16-6.19-1.18-9.56a65,65,0,0,1,24.52-23.7,101,101,0,0,1,17.48-7.49c4.19-1.43,4.19,3.31,6.09,5.1,1.11,1.08.51,3.17-2,4.46-4.07,2.09-8.55,2.36-12.65,4C169.59,98,168.16,99,167.76,101Z"/></svg>