<svg id="Layer_1" data-name="Layer 1" xmlns="http://www.w3.org/2000/svg" viewBox="0 0 400 400"><defs><style>.cls-1{fill:#fff;}</style></defs><title>stirred</title><path class="cls-1" d="M217.92,109.08c-7.52,3-14.28,5.74-21,8.5-2.47,1-2.86.93-2.63-1.39.18-1.77-1-1.71-2.17-1.67-7.4.22-14.61,1.63-21.77,3.17-5.36,1.13-10.68,2.27-15.64,4.77-2.23,1.13-5.8,1.64-5.71,3.9.11,2.45,3.64,3.93,6.12,4.63a224.62,224.62,0,0,0,35.15,7.15c14.27,1.57,28.43,1.39,42.67,1.67,3.18.07,4.69-1.28,5.62-3.5,5.21-12.41,11-24.61,16.57-36.88,3.81-8.42,7.38-16.93,11.5-25.23,2.52-5.08,8.52-7.66,13.26-5.63,5,2.14,7.24,8.57,4.92,13.5-6.28,13.33-12.57,26.65-18.15,40.24a78.37,78.37,0,0,1-5.67,11.52c-2.35,3.83-.44,4.17,3.06,3.92,6.43-.46,12.51-2.4,18.79-3.47,4.54-.78,8.55-3.35,13.41-3.05,1.87.11,3.18.42,3.34,2.45s1,4.75-1.5,5.7c-4.9,1.85-10.14,3-15.19,4.63-6.72,2.1-13.85,2.61-20.74,3.21-6.35.57-9.18,3.21-11,7.93-1.78,4.53-3.26,9.19-5.49,13.53-1.11,2.18-2.14,3.69-.54,4.41,4.41,2,2.41,1,7,2.44,7.37,2.27,14.21,4.95,19.95,9.94,4.3,3.7,5.24,8.38,5.31,13.14,0,2.71-.32,5.56-.32,8.26,0,51.22-.16,102.45.08,153.69,0,11.84-4.79,19-15.41,25.41-8.92,5.38-18.91,5.8-29.2,8.71-20.49,5.8-30.48,6-51.59,4.62-13.72-.77-20.25-1.29-33.19-5.49-8.22-2.72-16.31-3.6-23.76-7.54-11.9-6.3-16.62-14.35-16.58-26.75.14-51.06,0-102.13.16-153.19,0-4.19-.88-8.22.24-12.7,1.8-7.26,7.14-10.89,13.25-13.79,10.63-5,22.23-7.17,34.06-8.72,18.24-2.56,27.7-3.66,46.16-3.28,4.22.12,8.42.85,12.65,1.18,9.75.79,9.76.77,13.07-7.25,1.17-2.85,1.86-6,3.51-8.54,2.42-3.77-.17-3.89-3-4-6.62-.32-13.26-.92-19.84-.75-10.75.33-21.42-1.07-31.77-2.78-10.75-1.75-21.73-3.87-31-9.93-9.7-6.35-6.64-15.92,1.84-19.92a102,102,0,0,1,25.81-8c5.68-1,11.35-1.51,17-2.23,2.18-.27,5.65-.17,3.59-4.15-1.16-2.24,1.72-1.69,2.36-1.4C202.67,103.22,210.75,104.71,217.92,109.08Zm48.61,217.51c0-11.87-.17-23.76.09-35.64.1-4.15-2.22-4.06-4.95-2.9-10.94,4.63-22.77,6.59-34.45,7.55-12.24,1-24.56,2.93-37,2.16-1.94-.12-3.71.23-4.5,2.23-1.62,4-3,8.2-5.1,12-2.41,4.42-3.59,9.4-7,13.34-3.06,3.6-7.48,2.78-11.59,2.16a5,5,0,0,1-4.5-4c-.6-3.88-.77-7.6,1.36-11.49,2-3.62,3.35-7.57,5.19-11.32,1.29-2.66,1.42-5.07-3.36-4.73a29.77,29.77,0,0,1-8-.68c-10.53-2.23-21.34-3.45-31.35-7.54-2.84-1.17-3.3.71-3.3,2.92q0,35.63.1,71.29c0,4.43,2.33,7.91,6.79,10.28A135.71,135.71,0,0,0,147,381c8,2.57,16.18,4.76,24.28,5.28,16.66,1.07,33.43,1.86,50.16-1.05,11.17-1.95,22-4.63,32-9.4,7.78-3.76,13.92-8.69,13.25-18.25-.73-10.27-.15-20.65-.15-31Zm-148.39-87V261.3c0,2.6,1.13,3.71,3.61,2.31,5.1-2.78,10.87-4.06,16.32-5.07,13.75-2.54,27.7-4.47,41.82-4.63,4.4,0,6.36-1.68,7.73-4.86,2.9-6.78,5.41-13.69,9.08-20.2,2.11-3.7,1.14-5.11-3.4-5-13.74.44-27.25-2.51-41-2.12a10.15,10.15,0,0,1-2.52-.29c-9.06-2.15-18.48-2.77-27.35-5.76-3.28-1.08-4.45.33-4.34,3.46.18,6.79,0,13.58,0,20.37ZM207,253.3c7.2,1,14.38,1.86,21.6,2.63,11.59,1.22,23.16,2.78,33.81,7.63,2.94,1.34,4.2.78,4.17-2.48-.12-13.57-.05-27.14-.05-40.74,0-5.08-1.55-6-7.06-4.12-10,3.41-20.54,4.55-31,5.63-8,.83-7.82.46-10.67,7.41-3.28,8-7.11,15.87-10.8,24Zm-90.38-59.17c1.44,10.71,18.5,9.89,27.6,12.52,21.18,5.95,42.75,5.71,64.28,5.07,2.33.27,4.45-1.92,5-5.18,2.21-9,4.79-17.87,7.57-28C221.08,178.54,154.22,168.84,116.62,194.13ZM207.82,288c13.8.49,27-3,40.42-5.06,4.23-.63,8.3-2.49,12.23-4.13,1.48-.62,3.64-1.6,3.61-3.21,0-.68-1.87-2.05-3.37-2.85-6.12-3.28-13.07-4.52-19.78-5.94-11-2.35-22.43-2.52-33.65-3.48-2.24-.19-4.6-.26-5.67,2-3.06,6.38-5.56,13-9.05,19.19-1.23,2.19-.28,3.7,3,3.55,4.1-.23,8.18-.07,12.25-.07Zm-43.25-.34c2.73,0,5.52.55,6.82-2.67,2.44-6.05,4.67-12.21,7.72-18,2.11-4,.08-3.76-3.06-3.56-10.79.7-21.65,1.25-32.19,3.37-6.51,1.32-13.34,2.33-19.25,5.73-1.72,1-4.08,1.93-3.8,3.54.24,1.45,2.46,2.52,4.39,3.29,12.59,5,26.19,5.76,39.35,8.28Zm102.16-94.28c-5.27-5.7-11.84-6.88-17.9-8.8-12.79-4.15-13-3.52-17.61,9.49-1,2.74-.87,6.45-2.12,8.79-2.48,4.83,0,4.72,2,4.72,7.25,0,14.25-3,21.05-5.7,4.84-2,11.12-.81,14.53-8.53Z"/></svg>