<svg width="21" height="22" viewBox="0 0 21 22" fill="none" xmlns="http://www.w3.org/2000/svg">
<path d="M20.2176 13.7693L18.4232 12.7278C18.6043 11.7455 18.6043 10.7378 18.4232 9.75559L20.2176 8.71407C20.424 8.59552 20.5166 8.34995 20.4492 8.12133C19.9817 6.61407 19.1856 5.25077 18.1452 4.1161C17.9851 3.94251 17.724 3.90017 17.5218 4.01872L15.7274 5.06025C14.9735 4.40823 14.1058 3.90441 13.1665 3.57417V1.49534C13.1665 1.25825 13.0022 1.05079 12.7705 0.999982C11.2247 0.652806 9.64094 0.669741 8.17092 0.999982C7.93925 1.05079 7.77498 1.25825 7.77498 1.49534V3.5784C6.83989 3.91287 5.97219 4.4167 5.21401 5.06448L3.42386 4.02295C3.21747 3.90441 2.96053 3.94251 2.80047 4.12033C1.76008 5.25077 0.963987 6.61407 0.496443 8.12556C0.424837 8.35419 0.521715 8.59975 0.728109 8.7183L2.52247 9.75983C2.34135 10.7421 2.34135 11.7497 2.52247 12.732L0.728109 13.7735C0.521715 13.8921 0.429049 14.1376 0.496443 14.3663C0.963987 15.8735 1.76008 17.2368 2.80047 18.3715C2.96053 18.5451 3.22168 18.5874 3.42386 18.4689L5.21822 17.4273C5.97219 18.0794 6.83989 18.5832 7.77919 18.9134V20.9965C7.77919 21.2336 7.94346 21.441 8.17513 21.4918C9.72097 21.839 11.3047 21.8221 12.7748 21.4918C13.0064 21.441 13.1707 21.2336 13.1707 20.9965V18.9134C14.1058 18.5789 14.9735 18.0751 15.7317 17.4273L17.526 18.4689C17.7324 18.5874 17.9894 18.5493 18.1494 18.3715C19.1898 17.241 19.9859 15.8777 20.4534 14.3663C20.5166 14.1334 20.424 13.8878 20.2176 13.7693ZM10.4707 14.6288C8.61319 14.6288 7.10104 13.1088 7.10104 11.2417C7.10104 9.37455 8.61319 7.85459 10.4707 7.85459C12.3283 7.85459 13.8404 9.37455 13.8404 11.2417C13.8404 13.1088 12.3283 14.6288 10.4707 14.6288Z" fill="white"/>
</svg>
