<svg width="30" height="30" viewBox="0 0 30 30" fill="none" xmlns="http://www.w3.org/2000/svg">
<g id="local_bar_24px">
<g id="icon/maps/local_bar_24px">
<path fill-rule="evenodd" clip-rule="evenodd" d="M26.25 3.75H3.75V6.25L13.75 17.5V23.75H7.5V26.25H22.5V23.75H16.25V17.5L26.25 6.25V3.75ZM18.4625 11.25L15 15.1375L11.5375 11.25H18.4625ZM7.075 6.25L9.2875 8.75H20.7125L22.9375 6.25H7.075Z" fill="#BEBEBE"/>
<path d="M3.75 3.75V3.5H3.5V3.75H3.75ZM26.25 3.75H26.5V3.5H26.25V3.75ZM3.75 6.25H3.5V6.34505L3.56315 6.41609L3.75 6.25ZM13.75 17.5H14V17.405L13.9369 17.3339L13.75 17.5ZM13.75 23.75V24H14V23.75H13.75ZM7.5 23.75V23.5H7.25V23.75H7.5ZM7.5 26.25H7.25V26.5H7.5V26.25ZM22.5 26.25V26.5H22.75V26.25H22.5ZM22.5 23.75H22.75V23.5H22.5V23.75ZM16.25 23.75H16V24H16.25V23.75ZM16.25 17.5L16.0631 17.3339L16 17.405V17.5H16.25ZM26.25 6.25L26.4369 6.41609L26.5 6.34505V6.25H26.25ZM15 15.1375L14.8133 15.3038L15 15.5134L15.1867 15.3038L15 15.1375ZM18.4625 11.25L18.6492 11.4163L19.02 11H18.4625V11.25ZM11.5375 11.25V11H10.98L11.3508 11.4163L11.5375 11.25ZM9.2875 8.75L9.10029 8.91568L9.17491 9H9.2875V8.75ZM7.075 6.25V6H6.51991L6.88779 6.41568L7.075 6.25ZM20.7125 8.75V9H20.8247L20.8993 8.91621L20.7125 8.75ZM22.9375 6.25L23.1243 6.41621L23.4947 6H22.9375V6.25ZM3.75 4H26.25V3.5H3.75V4ZM4 6.25V3.75H3.5V6.25H4ZM13.9369 17.3339L3.93685 6.08391L3.56315 6.41609L13.5631 17.6661L13.9369 17.3339ZM14 23.75V17.5H13.5V23.75H14ZM7.5 24H13.75V23.5H7.5V24ZM7.75 26.25V23.75H7.25V26.25H7.75ZM22.5 26H7.5V26.5H22.5V26ZM22.25 23.75V26.25H22.75V23.75H22.25ZM16.25 24H22.5V23.5H16.25V24ZM16 17.5V23.75H16.5V17.5H16ZM26.0631 6.08391L16.0631 17.3339L16.4369 17.6661L26.4369 6.41609L26.0631 6.08391ZM26 3.75V6.25H26.5V3.75H26ZM15.1867 15.3038L18.6492 11.4163L18.2758 11.0837L14.8133 14.9712L15.1867 15.3038ZM11.3508 11.4163L14.8133 15.3038L15.1867 14.9712L11.7242 11.0837L11.3508 11.4163ZM18.4625 11H11.5375V11.5H18.4625V11ZM9.47471 8.58432L7.26221 6.08432L6.88779 6.41568L9.10029 8.91568L9.47471 8.58432ZM20.7125 8.5H9.2875V9H20.7125V8.5ZM22.7508 6.08379L20.5258 8.58379L20.8993 8.91621L23.1243 6.41621L22.7508 6.08379ZM7.075 6.5H22.9375V6H7.075V6.5Z" fill="black"/>
</g>
</g>
</svg>
