<svg width="101" height="32" viewBox="0 0 101 32" fill="none" xmlns="http://www.w3.org/2000/svg">
<rect x="0.190476" y="0.190476" width="33.619" height="30.619" fill="#2D2D2D" stroke="white" stroke-width="0.380952"/>
<path d="M16.6641 16.6663C16.6641 17.9932 16.4409 19.1527 15.9944 20.1447C15.548 21.1306 14.9156 21.8839 14.0971 22.4048C13.2786 22.9256 12.3238 23.186 11.2325 23.186C10.166 23.186 9.22049 22.9256 8.39584 22.4048C7.57118 21.8777 6.92944 21.1306 6.47061 20.1633C6.01798 19.1899 5.78547 18.0645 5.77307 16.7872V15.8106C5.77307 14.5086 5.99938 13.3584 6.45201 12.3601C6.90464 11.3619 7.54328 10.5992 8.36793 10.0722C9.19879 9.53894 10.1474 9.27232 11.2139 9.27232C12.299 9.27232 13.2538 9.53584 14.0785 10.0629C14.9094 10.5837 15.548 11.3433 15.9944 12.3415C16.4409 13.3336 16.6641 14.49 16.6641 15.8106V16.6663ZM14.8877 15.792C14.8877 14.1861 14.5652 12.9554 13.9204 12.0997C13.2755 11.2378 12.3734 10.8069 11.2139 10.8069C10.0854 10.8069 9.19569 11.2378 8.54465 12.0997C7.8998 12.9554 7.56808 14.1458 7.54948 15.6711V16.6663C7.54948 18.2226 7.875 19.4472 8.52604 20.34C9.18329 21.2267 10.0854 21.67 11.2325 21.67C12.3858 21.67 13.2786 21.2515 13.9111 20.4144C14.5435 19.5712 14.8691 18.3652 14.8877 16.7965V15.792ZM20.7935 14.1551C21.5562 13.2189 22.5482 12.7507 23.7697 12.7507C25.8965 12.7507 26.9691 13.9505 26.9877 16.3501V23H25.2671V16.3408C25.2609 15.6153 25.0935 15.079 24.7649 14.7318C24.4425 14.3845 23.9371 14.2109 23.2489 14.2109C22.6909 14.2109 22.201 14.3597 21.7794 14.6574C21.3578 14.955 21.0291 15.3456 20.7935 15.8292V23H19.0729V8.71429H20.7935V14.1551ZM43.2731 16.9639C41.7416 16.5237 40.6255 15.9843 39.9249 15.3456C39.2304 14.7008 38.8832 13.9071 38.8832 12.9647C38.8832 11.8982 39.3079 11.0177 40.1574 10.3233C41.013 9.62264 42.1229 9.27232 43.487 9.27232C44.417 9.27232 45.2448 9.45213 45.9702 9.81176C46.7019 10.1714 47.2661 10.6674 47.6629 11.2999C48.066 11.9323 48.2675 12.6236 48.2675 13.3739H46.4725C46.4725 12.5554 46.2121 11.9137 45.6912 11.4487C45.1704 10.9774 44.4356 10.7418 43.487 10.7418C42.6065 10.7418 41.9183 10.9371 41.4222 11.3278C40.9324 11.7122 40.6875 12.2485 40.6875 12.9368C40.6875 13.4886 40.92 13.9567 41.385 14.3411C41.8563 14.7194 42.653 15.0666 43.7753 15.3828C44.9038 15.699 45.7842 16.0494 46.4167 16.4338C47.0553 16.812 47.5265 17.2553 47.8304 17.7638C48.1404 18.2722 48.2954 18.8705 48.2954 19.5588C48.2954 20.6563 47.8676 21.5367 47.0119 22.2001C46.1563 22.8574 45.0123 23.186 43.58 23.186C42.6499 23.186 41.7819 23.0093 40.9758 22.6559C40.1698 22.2963 39.5466 21.8064 39.1064 21.1864C38.6724 20.5663 38.4554 19.8626 38.4554 19.0751H40.2504C40.2504 19.8936 40.5511 20.5415 41.1525 21.019C41.7602 21.4902 42.5693 21.7258 43.58 21.7258C44.5224 21.7258 45.2448 21.5336 45.747 21.1492C46.2493 20.7648 46.5004 20.2408 46.5004 19.5774C46.5004 18.9139 46.2679 18.4024 45.8028 18.0428C45.3378 17.677 44.4945 17.3173 43.2731 16.9639ZM52.0435 14.1551C52.8062 13.2189 53.7982 12.7507 55.0197 12.7507C57.1465 12.7507 58.2191 13.9505 58.2377 16.3501V23H56.5171V16.3408C56.5109 15.6153 56.3435 15.079 56.0149 14.7318C55.6925 14.3845 55.1871 14.2109 54.4989 14.2109C53.9409 14.2109 53.451 14.3597 53.0294 14.6574C52.6078 14.955 52.2791 15.3456 52.0435 15.8292V23H50.3229V8.71429H52.0435V14.1551ZM67.0268 23C66.9276 22.8016 66.847 22.4482 66.785 21.9397C65.9851 22.7706 65.0303 23.186 63.9204 23.186C62.9283 23.186 62.113 22.907 61.4743 22.349C60.8419 21.7847 60.5257 21.0717 60.5257 20.2098C60.5257 19.162 60.9225 18.3497 61.7162 17.7731C62.516 17.1902 63.6383 16.8988 65.083 16.8988H66.7571V16.1083C66.7571 15.5068 66.5773 15.0294 66.2176 14.676C65.858 14.3163 65.3279 14.1365 64.6272 14.1365C64.0134 14.1365 63.4988 14.2915 63.0833 14.6016C62.6679 14.9116 62.4602 15.2867 62.4602 15.7269H60.7303C60.7303 15.2247 60.907 14.7411 61.2604 14.276C61.62 13.8048 62.1037 13.4328 62.7113 13.16C63.3252 12.8872 63.9979 12.7507 64.7295 12.7507C65.889 12.7507 66.7974 13.0422 67.4546 13.625C68.1119 14.2016 68.4529 14.9984 68.4777 16.0153V20.6469C68.4777 21.5708 68.5955 22.3056 68.8311 22.8512V23H67.0268ZM64.1715 21.6886C64.7109 21.6886 65.2225 21.5491 65.7061 21.2701C66.1897 20.9911 66.5401 20.6283 66.7571 20.1819V18.1172H65.4085C63.3004 18.1172 62.2463 18.7341 62.2463 19.968C62.2463 20.5074 62.4261 20.9291 62.7857 21.2329C63.1453 21.5367 63.6073 21.6886 64.1715 21.6886ZM73.9836 18.3404L72.9048 19.4658V23H71.1842V8.71429H72.9048V17.3545L73.8255 16.2478L76.9598 12.9368H79.0525L75.1369 17.1406L79.5082 23H77.49L73.9836 18.3404ZM84.8188 23.186C83.4547 23.186 82.3449 22.7396 81.4892 21.8467C80.6336 20.9477 80.2057 19.7479 80.2057 18.2474V17.9312C80.2057 16.9329 80.3948 16.0432 80.7731 15.2619C81.1575 14.4745 81.6907 13.8606 82.3728 13.4204C83.061 12.974 83.8051 12.7507 84.6049 12.7507C85.9132 12.7507 86.9301 13.1817 87.6555 14.0435C88.381 14.9054 88.7437 16.1393 88.7437 17.7452V18.4613H81.9263C81.9511 19.4534 82.2395 20.2563 82.7913 20.8702C83.3493 21.4778 84.0562 21.7816 84.9118 21.7816C85.5195 21.7816 86.0341 21.6576 86.4557 21.4096C86.8774 21.1616 87.2463 20.833 87.5625 20.4237L88.6135 21.2422C87.7702 22.5381 86.5053 23.186 84.8188 23.186ZM84.6049 14.1644C83.9105 14.1644 83.3276 14.4187 82.8564 14.9271C82.3852 15.4293 82.0938 16.1362 81.9821 17.0476H87.0231V16.9174C86.9735 16.0432 86.7378 15.3673 86.3162 14.8899C85.8946 14.4063 85.3242 14.1644 84.6049 14.1644ZM95.6075 14.4807C95.3471 14.4373 95.065 14.4156 94.7612 14.4156C93.6327 14.4156 92.8669 14.8961 92.4639 15.8571V23H90.7433V12.9368H92.4174L92.4453 14.0993C93.0096 13.2003 93.8094 12.7507 94.8449 12.7507C95.1797 12.7507 95.4339 12.7941 95.6075 12.881V14.4807Z" fill="white"/>
</svg>
